<svg width="90" height="90" viewBox="0 0 90 90" fill="none" xmlns="http://www.w3.org/2000/svg">
<rect width="90" height="90" rx="15" fill="#F8F8F8"/>
<path d="M15.792 15.0683V16.6523L17.3527 15.7205V21.8235H18.8202V13.6706H18.1796L15.792 15.0683ZM21.5044 21.9167H23.135L25.511 17.6655C25.7789 17.2113 25.907 16.7338 25.907 16.233C25.907 15.4759 25.6391 14.8353 25.115 14.3345C24.5909 13.8337 23.9503 13.5774 23.1816 13.5774C22.4013 13.5774 21.7607 13.8337 21.2365 14.3345C20.7124 14.8353 20.4562 15.4759 20.4562 16.233C20.4562 17.0133 20.7008 17.6539 21.2016 18.1547C21.7024 18.6439 22.3314 18.8885 23.0884 18.8885H23.2748L21.5044 21.9167ZM24.4395 16.233C24.4395 17.0366 23.9154 17.5374 23.1816 17.5374C22.4478 17.5374 21.9237 17.0366 21.9237 16.233C21.9237 15.4526 22.4711 14.9285 23.1816 14.9285C23.8804 14.9285 24.4395 15.4526 24.4395 16.233ZM28.2493 21.9167H29.8798L32.2558 17.6655C32.5237 17.2113 32.6518 16.7338 32.6518 16.233C32.6518 15.4759 32.384 14.8353 31.8598 14.3345C31.3357 13.8337 30.6951 13.5774 29.9264 13.5774C29.1461 13.5774 28.5055 13.8337 27.9814 14.3345C27.4573 14.8353 27.201 15.4759 27.201 16.233C27.201 17.0133 27.4456 17.6539 27.9464 18.1547C28.4473 18.6439 29.0762 18.8885 29.8333 18.8885H30.0196L28.2493 21.9167ZM31.1843 16.233C31.1843 17.0366 30.6602 17.5374 29.9264 17.5374C29.1927 17.5374 28.6686 17.0366 28.6686 16.233C28.6686 15.4526 29.216 14.9285 29.9264 14.9285C30.6253 14.9285 31.1843 15.4526 31.1843 16.233ZM33.7692 13.6706V15.0217H36.9722L34.1885 21.8235H35.6328L38.7076 14.2763V13.6706H33.7692Z" fill="#212121"/>
<path d="M18.5989 35.8823C20.5207 35.8823 22.3959 34.6477 22.3959 31.8059C22.3959 28.964 20.5207 27.7294 18.5989 27.7294H16.0482V35.8823H18.5989ZM17.5624 29.127H18.1214C18.8319 29.127 19.4142 29.2784 19.9616 29.6511C20.5207 30.0239 20.8585 30.7693 20.8585 31.8059C20.8585 32.8424 20.5207 33.5879 19.9616 33.9606C19.4142 34.3333 18.8319 34.4847 18.1214 34.4847H17.5624V29.127ZM29.0752 32.8191C29.0752 32.1553 28.8656 31.4681 28.4463 30.8974C28.027 30.3034 27.2699 29.919 26.3381 29.919C24.3232 29.919 23.5195 31.5496 23.5195 32.9473C23.5195 34.3449 24.3232 35.9755 26.3381 35.9755C27.6193 35.9755 28.5045 35.4048 29.0053 34.2634L27.8406 33.8324C27.4912 34.4381 27.0137 34.7409 26.4197 34.7409C25.5811 34.7409 25.0686 34.1236 25.0337 33.4131H29.0752V32.8191ZM26.3381 31.1536C27.0137 31.1536 27.433 31.5263 27.596 32.2717H25.0686C25.1734 31.6544 25.651 31.1536 26.3381 31.1536ZM34.4812 33.7742C34.1667 34.4148 33.7008 34.7409 33.1068 34.7409C32.2216 34.7409 31.7557 34.0188 31.7557 32.9473C31.7557 31.8757 32.2216 31.1536 33.1068 31.1536C33.7008 31.1536 34.1667 31.4797 34.4812 32.1203L35.774 31.5962C35.3197 30.4781 34.4346 29.919 33.1068 29.919C32.1867 29.919 31.4879 30.2102 30.987 30.7809C30.4862 31.3516 30.2416 32.0737 30.2416 32.9473C30.2416 33.8208 30.4862 34.5429 30.987 35.1136C31.4879 35.6843 32.1867 35.9755 33.1068 35.9755C34.4346 35.9755 35.3197 35.4164 35.774 34.2983L34.4812 33.7742ZM42.3033 32.8191C42.3033 32.1553 42.0936 31.4681 41.6743 30.8974C41.255 30.3034 40.498 29.919 39.5662 29.919C37.5513 29.919 36.7476 31.5496 36.7476 32.9473C36.7476 34.3449 37.5513 35.9755 39.5662 35.9755C40.8474 35.9755 41.7325 35.4048 42.2334 34.2634L41.0687 33.8324C40.7193 34.4381 40.2417 34.7409 39.6477 34.7409C38.8091 34.7409 38.2967 34.1236 38.2617 33.4131H42.3033V32.8191ZM39.5662 31.1536C40.2417 31.1536 40.661 31.5263 40.8241 32.2717H38.2967C38.4015 31.6544 38.879 31.1536 39.5662 31.1536ZM48.5305 33.5995C48.5305 32.0155 49.0546 31.1536 49.8 31.1536C50.2776 31.1536 50.5222 31.4215 50.5222 31.9689V35.8823H51.9664V31.7243C51.9664 30.5946 51.3025 29.919 50.2193 29.919C49.4739 29.919 48.8799 30.3267 48.4257 31.1303C48.1811 30.3267 47.5405 29.919 46.7835 29.919C46.1196 29.919 45.5489 30.2684 45.0946 30.9556V30.0122H43.6504V35.8823H45.0946V33.7276C45.0946 32.0504 45.6188 31.1536 46.3642 31.1536C46.8417 31.1536 47.0863 31.4215 47.0863 31.9689V35.8823H48.5305V33.5995ZM56.4451 35.9755C58.1689 35.9755 59.124 34.7991 59.124 32.9473C59.124 31.0954 58.1689 29.919 56.4451 29.919C55.8744 29.919 55.2921 30.2102 55.0242 30.548V27.6362H53.58V35.8823H55.0242V35.2767C55.2106 35.6144 55.7813 35.9755 56.4451 35.9755ZM57.2255 34.2634C56.9693 34.5779 56.6431 34.7409 56.2471 34.7409C55.8511 34.7409 55.525 34.5895 55.2688 34.275C55.0242 33.9606 54.8961 33.518 54.8961 32.9473C54.8961 32.3766 55.0242 31.9456 55.2688 31.6311C55.525 31.3167 55.8511 31.1536 56.2471 31.1536C56.6431 31.1536 56.9693 31.3167 57.2255 31.6311C57.4817 31.9456 57.6099 32.3882 57.6099 32.9473C57.6099 33.5063 57.4817 33.9489 57.2255 34.2634ZM65.7566 32.8191C65.7566 32.1553 65.547 31.4681 65.1277 30.8974C64.7084 30.3034 63.9513 29.919 63.0195 29.919C61.0046 29.919 60.201 31.5496 60.201 32.9473C60.201 34.3449 61.0046 35.9755 63.0195 35.9755C64.3007 35.9755 65.1859 35.4048 65.6867 34.2634L64.522 33.8324C64.1726 34.4381 63.6951 34.7409 63.1011 34.7409C62.2625 34.7409 61.75 34.1236 61.7151 33.4131H65.7566V32.8191ZM63.0195 31.1536C63.6951 31.1536 64.1144 31.5263 64.2774 32.2717H61.75C61.8548 31.6544 62.3324 31.1536 63.0195 31.1536ZM68.5025 33.7975C68.5025 32.0155 69.1547 31.2119 70.0748 31.2119C70.2961 31.2119 70.5058 31.2701 70.6805 31.3749L70.9484 30.0355C70.6921 29.954 70.4592 29.919 70.2379 29.919C69.5507 29.919 68.9218 30.3034 68.5025 30.9673V30.0122H67.0583V35.8823H68.5025V33.7975Z" fill="#212121"/>
<path d="M37.9161 73.9412V70.614H25.647L35.0464 58.8856C36.5852 56.9309 37.3754 54.8098 37.3754 52.5639C37.3754 50.2765 36.7516 48.4049 35.5455 47.0324C34.0482 45.3272 31.9271 44.4954 29.2238 44.4954C27.0195 44.4954 25.0648 45.2441 23.4012 46.7829C21.7376 48.2801 20.781 50.1517 20.5731 52.4391L24.1082 53.1046C24.5657 49.9437 26.5204 47.8226 29.2238 47.8226C30.7626 47.8226 31.9271 48.2801 32.7173 49.2367C33.4244 50.1101 33.7987 51.1914 33.7987 52.5639C33.7987 54.4355 33.258 55.8079 31.4281 58.0954L19.9492 72.3192V73.9412H37.9161ZM44.1179 65.9559C44.3674 68.4513 45.3656 70.4476 47.1124 71.9864C48.8591 73.5253 50.9386 74.2739 53.3924 74.2739C56.179 74.2739 58.4248 73.4005 60.1716 71.6537C61.9184 69.8653 62.7918 67.5779 62.7918 64.7914C62.7918 62.1296 62.0432 59.9669 60.5875 58.3449C59.1319 56.6813 57.3019 55.8495 55.056 55.8495C54.5154 55.8495 54.1411 55.8911 53.8915 55.9743L61.2945 45.9511V44.8282H45.4903V48.1554H55.971L49.3582 57.222L50.8139 59.1767C51.5625 58.8024 52.4359 58.636 53.3924 58.636C56.9276 58.636 59.215 60.8403 59.215 64.7914C59.215 68.6592 56.886 70.9467 53.3924 70.9467C50.0652 70.9467 48.1521 69.1167 47.6114 65.4984L44.1179 65.9559Z" fill="#A247CC"/>
</svg>
