<svg width="90" height="90" viewBox="0 0 90 90" fill="none" xmlns="http://www.w3.org/2000/svg">
<rect width="90" height="90" rx="15" fill="#F8F8F8"/>
<path opacity="0.2" d="M38.626 19.25H22.876C22.7611 19.25 22.6473 19.2726 22.5411 19.3166C22.435 19.3606 22.3385 19.425 22.2573 19.5063C22.176 19.5875 22.1116 19.684 22.0676 19.7902C22.0236 19.8963 22.001 20.0101 22.001 20.125V22.75H35.126C35.2409 22.75 35.3547 22.7726 35.4608 22.8166C35.567 22.8606 35.6634 22.925 35.7447 23.0063C35.8259 23.0875 35.8904 23.184 35.9344 23.2902C35.9783 23.3963 36.001 23.5101 36.001 23.625V33.25H38.626C38.7409 33.25 38.8547 33.2274 38.9608 33.1834C39.067 33.1394 39.1635 33.075 39.2447 32.9937C39.326 32.9125 39.3904 32.816 39.4344 32.7099C39.4783 32.6037 39.501 32.4899 39.501 32.375V20.125C39.501 20.0101 39.4783 19.8963 39.4344 19.7902C39.3904 19.684 39.3259 19.5875 39.2447 19.5063C39.1634 19.425 39.067 19.3606 38.9608 19.3166C38.8547 19.2726 38.7409 19.25 38.626 19.25V19.25Z" fill="#A247CC"/>
<path d="M35.126 22.75H19.376C18.8927 22.75 18.501 23.1418 18.501 23.625V35.875C18.501 36.3582 18.8927 36.75 19.376 36.75H35.126C35.6092 36.75 36.001 36.3582 36.001 35.875V23.625C36.001 23.1418 35.6092 22.75 35.126 22.75Z" stroke="#A247CC" stroke-width="1.75846" stroke-linecap="round" stroke-linejoin="round"/>
<path d="M22.001 22.75V20.125C22.001 19.8929 22.0932 19.6704 22.2573 19.5063C22.4214 19.3422 22.6439 19.25 22.876 19.25H38.626C38.858 19.25 39.0806 19.3422 39.2447 19.5063C39.4088 19.6704 39.501 19.8929 39.501 20.125V32.375C39.501 32.6071 39.4088 32.8296 39.2447 32.9937C39.0806 33.1578 38.858 33.25 38.626 33.25H36.001" stroke="#A247CC" stroke-width="1.75846" stroke-linecap="round" stroke-linejoin="round"/>
<path d="M18.5 26.25H36" stroke="#A247CC" stroke-width="1.75846" stroke-linecap="round" stroke-linejoin="round"/>
<path d="M19.056 58.12C18.384 58.12 17.804 57.984 17.316 57.712C16.828 57.44 16.456 57.06 16.2 56.572C15.944 56.076 15.816 55.508 15.816 54.868V49.6H17.316V54.844C17.316 55.468 17.46 55.948 17.748 56.284C18.044 56.612 18.48 56.776 19.056 56.776C19.632 56.776 20.064 56.612 20.352 56.284C20.648 55.948 20.796 55.468 20.796 54.844V49.6H22.296V54.868C22.296 55.508 22.168 56.076 21.912 56.572C21.656 57.06 21.284 57.44 20.796 57.712C20.308 57.984 19.728 58.12 19.056 58.12ZM23.9254 49.6H25.4254V58H23.9254V49.6ZM31.0983 49.6H32.5383L27.9783 58H26.5383L31.0983 49.6ZM36.8919 58.12C36.2199 58.12 35.6399 57.984 35.1519 57.712C34.6639 57.44 34.2919 57.06 34.0359 56.572C33.7799 56.076 33.6519 55.508 33.6519 54.868V49.6H35.1519V54.844C35.1519 55.468 35.2959 55.948 35.5839 56.284C35.8799 56.612 36.3159 56.776 36.8919 56.776C37.4679 56.776 37.8999 56.612 38.1879 56.284C38.4839 55.948 38.6319 55.468 38.6319 54.844V49.6H40.1319V54.868C40.1319 55.508 40.0039 56.076 39.7479 56.572C39.4919 57.06 39.1199 57.44 38.6319 57.712C38.1439 57.984 37.5639 58.12 36.8919 58.12ZM43.5112 53.392L41.2912 49.6H42.8992L44.3152 52.156L45.7312 49.6H47.3512L45.1312 53.392L47.9272 58H46.2832L44.3152 54.664L42.3592 58H40.7032L43.5112 53.392ZM15.816 64.6H18.528C19.432 64.6 20.216 64.772 20.88 65.116C21.552 65.452 22.068 65.936 22.428 66.568C22.788 67.2 22.968 67.944 22.968 68.8C22.968 69.656 22.788 70.4 22.428 71.032C22.068 71.664 21.552 72.152 20.88 72.496C20.216 72.832 19.432 73 18.528 73H15.816V64.6ZM18.48 71.68C19.424 71.68 20.156 71.44 20.676 70.96C21.204 70.472 21.468 69.752 21.468 68.8C21.468 67.848 21.204 67.132 20.676 66.652C20.156 66.164 19.424 65.92 18.48 65.92H17.316V71.68H18.48ZM26.999 73.12C26.407 73.12 25.883 72.992 25.427 72.736C24.971 72.472 24.619 72.104 24.371 71.632C24.123 71.16 23.999 70.616 23.999 70C23.999 69.392 24.135 68.852 24.407 68.38C24.687 67.908 25.055 67.54 25.511 67.276C25.967 67.012 26.463 66.88 26.999 66.88C27.567 66.88 28.071 67.004 28.511 67.252C28.959 67.492 29.307 67.844 29.555 68.308C29.803 68.772 29.927 69.32 29.927 69.952V70.372H25.331C25.363 70.86 25.531 71.248 25.835 71.536C26.147 71.816 26.543 71.956 27.023 71.956C27.431 71.956 27.767 71.864 28.031 71.68C28.295 71.488 28.483 71.228 28.595 70.9L29.795 70.972L29.831 71.032C29.639 71.704 29.299 72.22 28.811 72.58C28.331 72.94 27.727 73.12 26.999 73.12ZM28.631 69.376C28.591 68.944 28.419 68.608 28.115 68.368C27.819 68.12 27.447 67.996 26.999 67.996C26.583 67.996 26.223 68.12 25.919 68.368C25.623 68.608 25.435 68.944 25.355 69.376H28.631ZM33.2204 73.12C32.5164 73.12 31.9444 72.956 31.5044 72.628C31.0644 72.292 30.7884 71.828 30.6764 71.236L30.7004 71.164L31.8404 70.972C31.9204 71.3 32.0684 71.552 32.2844 71.728C32.5004 71.904 32.8204 71.992 33.2444 71.992C33.5324 71.992 33.7724 71.928 33.9644 71.8C34.1644 71.672 34.2644 71.496 34.2644 71.272C34.2644 71.048 34.1524 70.872 33.9284 70.744C33.7044 70.608 33.3084 70.468 32.7404 70.324C32.1244 70.172 31.6644 69.956 31.3604 69.676C31.0564 69.388 30.9044 69.012 30.9044 68.548C30.9044 68.244 30.9924 67.964 31.1684 67.708C31.3444 67.452 31.5924 67.252 31.9124 67.108C32.2324 66.956 32.5964 66.88 33.0044 66.88C33.6524 66.88 34.1764 67.032 34.5764 67.336C34.9764 67.632 35.2164 68.06 35.2964 68.62L35.2724 68.68L34.1084 68.836C34.0524 68.54 33.9244 68.316 33.7244 68.164C33.5324 68.004 33.2884 67.924 32.9924 67.924C32.7604 67.924 32.5564 67.972 32.3804 68.068C32.2124 68.164 32.1284 68.304 32.1284 68.488C32.1284 68.68 32.2444 68.84 32.4764 68.968C32.7084 69.096 33.1164 69.24 33.7004 69.4C34.3324 69.568 34.8004 69.788 35.1044 70.06C35.4084 70.332 35.5604 70.696 35.5604 71.152C35.5604 71.52 35.4644 71.856 35.2724 72.16C35.0804 72.456 34.8044 72.692 34.4444 72.868C34.0924 73.036 33.6844 73.12 33.2204 73.12ZM37.4163 66.22C37.1843 66.22 36.9843 66.136 36.8163 65.968C36.6483 65.8 36.5643 65.6 36.5643 65.368C36.5643 65.136 36.6483 64.936 36.8163 64.768C36.9843 64.6 37.1843 64.516 37.4163 64.516C37.6483 64.516 37.8483 64.6 38.0163 64.768C38.1843 64.936 38.2683 65.136 38.2683 65.368C38.2683 65.6 38.1843 65.8 38.0163 65.968C37.8483 66.136 37.6483 66.22 37.4163 66.22ZM36.7323 67H38.1003V73H36.7323V67ZM42.3517 75.52C41.5677 75.52 40.9477 75.348 40.4917 75.004C40.0437 74.66 39.7717 74.22 39.6757 73.684L39.7357 73.624L41.0797 73.54C41.1437 73.796 41.2797 73.996 41.4877 74.14C41.6957 74.292 41.9877 74.368 42.3637 74.368C42.8917 74.368 43.2837 74.232 43.5397 73.96C43.7957 73.688 43.9237 73.32 43.9237 72.856V72.304C43.6597 72.544 43.3877 72.72 43.1077 72.832C42.8357 72.944 42.5037 73 42.1117 73C41.5917 73 41.1157 72.876 40.6837 72.628C40.2597 72.38 39.9237 72.028 39.6757 71.572C39.4277 71.108 39.3037 70.564 39.3037 69.94C39.3037 69.324 39.4317 68.784 39.6877 68.32C39.9517 67.856 40.2957 67.5 40.7197 67.252C41.1517 67.004 41.6197 66.88 42.1237 66.88C42.8517 66.88 43.4517 67.116 43.9237 67.588V67H45.2557V72.868C45.2557 73.692 44.9997 74.34 44.4877 74.812C43.9837 75.284 43.2717 75.52 42.3517 75.52ZM42.3277 71.848C42.8077 71.848 43.1917 71.704 43.4797 71.416C43.7757 71.128 43.9237 70.756 43.9237 70.3V69.604C43.9237 69.148 43.7677 68.772 43.4557 68.476C43.1517 68.18 42.7757 68.032 42.3277 68.032C41.8317 68.032 41.4237 68.188 41.1037 68.5C40.7917 68.812 40.6357 69.292 40.6357 69.94C40.6357 70.588 40.7917 71.068 41.1037 71.38C41.4237 71.692 41.8317 71.848 42.3277 71.848ZM46.7875 67H48.1555V67.78C48.4035 67.524 48.7035 67.312 49.0555 67.144C49.4155 66.968 49.7995 66.88 50.2075 66.88C50.8475 66.88 51.3435 67.064 51.6955 67.432C52.0555 67.792 52.2355 68.272 52.2355 68.872V73H50.8675V69.22C50.8675 68.852 50.7715 68.572 50.5795 68.38C50.3955 68.18 50.1235 68.08 49.7635 68.08C49.4595 68.08 49.1635 68.176 48.8755 68.368C48.5955 68.552 48.3555 68.792 48.1555 69.088V73H46.7875V67ZM56.413 73.12C55.821 73.12 55.297 72.992 54.841 72.736C54.385 72.472 54.033 72.104 53.785 71.632C53.537 71.16 53.413 70.616 53.413 70C53.413 69.392 53.549 68.852 53.821 68.38C54.101 67.908 54.469 67.54 54.925 67.276C55.381 67.012 55.877 66.88 56.413 66.88C56.981 66.88 57.485 67.004 57.925 67.252C58.373 67.492 58.721 67.844 58.969 68.308C59.217 68.772 59.341 69.32 59.341 69.952V70.372H54.745C54.777 70.86 54.945 71.248 55.249 71.536C55.561 71.816 55.957 71.956 56.437 71.956C56.845 71.956 57.181 71.864 57.445 71.68C57.709 71.488 57.897 71.228 58.009 70.9L59.209 70.972L59.245 71.032C59.053 71.704 58.713 72.22 58.225 72.58C57.745 72.94 57.141 73.12 56.413 73.12ZM58.045 69.376C58.005 68.944 57.833 68.608 57.529 68.368C57.233 68.12 56.861 67.996 56.413 67.996C55.997 67.996 55.637 68.12 55.333 68.368C55.037 68.608 54.849 68.944 54.769 69.376H58.045ZM60.4985 67H61.8665V67.744C62.3705 67.168 62.9465 66.88 63.5945 66.88C63.8105 66.88 63.9825 66.912 64.1105 66.976L63.9305 68.08L63.8825 68.116C63.7865 68.092 63.6545 68.08 63.4865 68.08C63.1505 68.08 62.8425 68.176 62.5625 68.368C62.2825 68.56 62.0505 68.836 61.8665 69.196V73H60.4985V67Z" fill="#212121"/>
</svg>
