<svg width="90" height="90" viewBox="0 0 90 90" fill="none" xmlns="http://www.w3.org/2000/svg">
<rect width="90" height="90" rx="15" fill="#F8F8F8"/>
<path opacity="0.2" d="M36 37.2427V17.9927C36 17.0262 35.2165 16.2427 34.25 16.2427H23.75C22.7835 16.2427 22 17.0262 22 17.9927V37.2427C22 38.2092 22.7835 38.9927 23.75 38.9927H34.25C35.2165 38.9927 36 38.2092 36 37.2427Z" fill="#A247CC"/>
<path d="M36 37.2427V17.9927C36 17.0262 35.2165 16.2427 34.25 16.2427H23.75C22.7835 16.2427 22 17.0262 22 17.9927V37.2427C22 38.2092 22.7835 38.9927 23.75 38.9927H34.25C35.2165 38.9927 36 38.2092 36 37.2427Z" stroke="#A247CC" stroke-width="1.75846" stroke-linecap="round" stroke-linejoin="round"/>
<path d="M29 21.4927C29.7249 21.4927 30.3125 20.905 30.3125 20.1802C30.3125 19.4553 29.7249 18.8677 29 18.8677C28.2751 18.8677 27.6875 19.4553 27.6875 20.1802C27.6875 20.905 28.2751 21.4927 29 21.4927Z" fill="#A247CC"/>
<path d="M17.448 58.6177V52.9537L19.308 57.8497H20.244L22.104 52.9537V58.6177H23.424V50.2177H21.864L19.776 55.8097L17.688 50.2177H16.128V58.6177H17.448ZM25.7436 57.8137C26.2836 58.4137 27.0156 58.7137 27.9156 58.7137C28.8156 58.7137 29.5356 58.4137 30.0756 57.8137C30.6156 57.2137 30.8916 56.4697 30.8916 55.5937C30.8916 54.7177 30.6156 53.9737 30.0756 53.3737C29.5356 52.7737 28.8156 52.4737 27.9156 52.4737C27.0156 52.4737 26.2836 52.7737 25.7436 53.3737C25.2036 53.9737 24.9396 54.7177 24.9396 55.5937C24.9396 56.4697 25.2036 57.2137 25.7436 57.8137ZM26.6916 54.1777C26.9916 53.7817 27.3996 53.5777 27.9156 53.5777C28.4316 53.5777 28.8396 53.7817 29.1276 54.1777C29.4276 54.5737 29.5716 55.0417 29.5716 55.5937C29.5716 56.1457 29.4276 56.6257 29.1276 57.0217C28.8396 57.4177 28.4316 57.6097 27.9156 57.6097C27.3996 57.6097 26.9916 57.4177 26.6916 57.0217C26.4036 56.6257 26.2596 56.1457 26.2596 55.5937C26.2596 55.0417 26.4036 54.5737 26.6916 54.1777ZM37.9131 55.5937C37.9131 53.6737 36.9651 52.4737 35.1891 52.4737C34.8891 52.4737 34.5891 52.5577 34.2651 52.7137C33.9411 52.8697 33.7131 53.0377 33.5691 53.2417V50.1217H32.3211V58.6177H33.5691V57.9217C33.7971 58.3177 34.4811 58.7137 35.2131 58.7137C36.9771 58.7137 37.9131 57.5617 37.9131 55.5937ZM36.1611 57.0697C35.8731 57.4297 35.5011 57.6097 35.0451 57.6097C34.5891 57.6097 34.2171 57.4297 33.9291 57.0697C33.6411 56.6977 33.4971 56.2057 33.4971 55.5937C33.4971 54.9817 33.6411 54.4897 33.9291 54.1297C34.2171 53.7577 34.5891 53.5777 35.0451 53.5777C35.5011 53.5777 35.8731 53.7577 36.1611 54.1297C36.4491 54.4897 36.5931 54.9817 36.5931 55.5937C36.5931 56.2057 36.4491 56.6977 36.1611 57.0697ZM39.2923 51.4777C39.6283 51.8017 40.2043 51.8017 40.5283 51.4777C40.8643 51.1417 40.8643 50.5897 40.5283 50.2537C40.1923 49.9057 39.6403 49.9057 39.3043 50.2537C38.9683 50.5897 38.9683 51.1417 39.2923 51.4777ZM39.2923 58.6177H40.5403V52.5697H39.2923V58.6177ZM42.1291 58.6177H43.3771V50.1217H42.1291V58.6177ZM47.5525 53.5777C48.4045 53.5777 48.9085 54.1417 49.0165 54.8977H46.0765C46.2205 54.1177 46.7485 53.5777 47.5525 53.5777ZM50.3365 55.4017C50.3365 54.0457 49.4845 52.4737 47.5525 52.4737C45.5605 52.4737 44.7325 54.1537 44.7325 55.5937C44.7325 57.0337 45.5605 58.7137 47.5525 58.7137C48.8845 58.7137 49.5925 58.1977 50.2045 57.0097L49.1365 56.5897C48.8365 57.2257 48.2245 57.6097 47.5525 57.6097C46.6045 57.6097 46.0525 56.8897 46.0525 55.9417H50.3365V55.4017ZM16.128 73.6177H18.6C19.68 73.6177 20.592 73.2577 21.336 72.5257C22.092 71.7937 22.464 70.7617 22.464 69.4177C22.464 68.0737 22.092 67.0417 21.336 66.3097C20.592 65.5777 19.68 65.2177 18.6 65.2177H16.128V73.6177ZM18.216 66.4657C19.692 66.4657 21.12 67.1257 21.12 69.4177C21.12 71.7097 19.692 72.3697 18.216 72.3697H17.448V66.4657H18.216ZM26.5291 68.5777C27.3811 68.5777 27.8851 69.1417 27.9931 69.8977H25.0531C25.1971 69.1177 25.7251 68.5777 26.5291 68.5777ZM29.3131 70.4017C29.3131 69.0457 28.4611 67.4737 26.5291 67.4737C24.5371 67.4737 23.7091 69.1537 23.7091 70.5937C23.7091 72.0337 24.5371 73.7137 26.5291 73.7137C27.8611 73.7137 28.5691 73.1977 29.1811 72.0097L28.1131 71.5897C27.8131 72.2257 27.2011 72.6097 26.5291 72.6097C25.5811 72.6097 25.0291 71.8897 25.0291 70.9417H29.3131V70.4017ZM31.9253 73.6177H33.1013L35.1053 67.5697H33.8333L32.5133 71.9137L31.1933 67.5697H29.9213L31.9253 73.6177ZM38.3885 68.5777C39.2405 68.5777 39.7445 69.1417 39.8525 69.8977H36.9125C37.0565 69.1177 37.5845 68.5777 38.3885 68.5777ZM41.1725 70.4017C41.1725 69.0457 40.3205 67.4737 38.3885 67.4737C36.3965 67.4737 35.5685 69.1537 35.5685 70.5937C35.5685 72.0337 36.3965 73.7137 38.3885 73.7137C39.7205 73.7137 40.4285 73.1977 41.0405 72.0097L39.9725 71.5897C39.6725 72.2257 39.0605 72.6097 38.3885 72.6097C37.4405 72.6097 36.8885 71.8897 36.8885 70.9417H41.1725V70.4017ZM42.5275 73.6177H43.7755V65.1217H42.5275V73.6177ZM45.935 72.8137C46.475 73.4137 47.207 73.7137 48.107 73.7137C49.007 73.7137 49.727 73.4137 50.267 72.8137C50.807 72.2137 51.083 71.4697 51.083 70.5937C51.083 69.7177 50.807 68.9737 50.267 68.3737C49.727 67.7737 49.007 67.4737 48.107 67.4737C47.207 67.4737 46.475 67.7737 45.935 68.3737C45.395 68.9737 45.131 69.7177 45.131 70.5937C45.131 71.4697 45.395 72.2137 45.935 72.8137ZM46.883 69.1777C47.183 68.7817 47.591 68.5777 48.107 68.5777C48.623 68.5777 49.031 68.7817 49.319 69.1777C49.619 69.5737 49.763 70.0417 49.763 70.5937C49.763 71.1457 49.619 71.6257 49.319 72.0217C49.031 72.4177 48.623 72.6097 48.107 72.6097C47.591 72.6097 47.183 72.4177 46.883 72.0217C46.595 71.6257 46.451 71.1457 46.451 70.5937C46.451 70.0417 46.595 69.5737 46.883 69.1777ZM58.1631 70.5937C58.1631 68.6257 57.2271 67.4737 55.4631 67.4737C54.7311 67.4737 54.0471 67.8697 53.8191 68.2657V67.5697H52.5711V76.0657H53.8191V72.9457C54.1191 73.3777 54.7311 73.7137 55.4391 73.7137C57.2151 73.7137 58.1631 72.5137 58.1631 70.5937ZM56.4111 72.0697C56.1231 72.4297 55.7511 72.6097 55.2951 72.6097C54.8391 72.6097 54.4671 72.4297 54.1791 72.0697C53.8911 71.6977 53.7471 71.2057 53.7471 70.5937C53.7471 69.9817 53.8911 69.4897 54.1791 69.1297C54.4671 68.7577 54.8391 68.5777 55.2951 68.5777C55.7511 68.5777 56.1231 68.7577 56.4111 69.1297C56.6991 69.4897 56.8431 69.9817 56.8431 70.5937C56.8431 71.2057 56.6991 71.6977 56.4111 72.0697ZM62.1072 68.5777C62.9592 68.5777 63.4632 69.1417 63.5712 69.8977H60.6312C60.7752 69.1177 61.3032 68.5777 62.1072 68.5777ZM64.8912 70.4017C64.8912 69.0457 64.0392 67.4737 62.1072 67.4737C60.1152 67.4737 59.2872 69.1537 59.2872 70.5937C59.2872 72.0337 60.1152 73.7137 62.1072 73.7137C63.4392 73.7137 64.1472 73.1977 64.7592 72.0097L63.6912 71.5897C63.3912 72.2257 62.7792 72.6097 62.1072 72.6097C61.1592 72.6097 60.6072 71.8897 60.6072 70.9417H64.8912V70.4017ZM67.4128 71.3737C67.4128 70.4737 67.5688 69.7897 67.8928 69.3097C68.2168 68.8177 68.6008 68.5777 69.0448 68.5777C69.3208 68.5777 69.5608 68.6377 69.7528 68.7577L69.9688 67.6177C69.7288 67.5217 69.4768 67.4737 69.2008 67.4737C68.5288 67.4737 67.8088 67.8697 67.4128 68.5777V67.5697H66.1648V73.6177H67.4128V71.3737Z" fill="#212121"/>
</svg>
