<svg width="90" height="90" viewBox="0 0 90 90" fill="none" xmlns="http://www.w3.org/2000/svg">
<rect width="90" height="90" rx="15" fill="#F8F8F8"/>
<path opacity="0.2" d="M29.2457 38.1149C31.1654 38.0703 33.0362 37.5002 34.6545 36.4665C36.2728 35.4329 37.5767 33.9753 38.4244 32.2522L38.4242 32.2521L32.4867 28.6003C32.3826 28.5363 32.2663 28.4948 32.1452 28.4784L29.6494 28.142C29.462 28.1167 29.2714 28.1529 29.1063 28.245C28.9411 28.3371 28.8102 28.4802 28.7333 28.653L27.235 32.015C27.1653 32.1713 27.143 32.3447 27.1708 32.5136C27.1987 32.6825 27.2755 32.8395 27.3917 32.9652L29.4479 35.1893C29.5412 35.2901 29.6093 35.4114 29.647 35.5435C29.6846 35.6756 29.6906 35.8146 29.6645 35.9494L29.2457 38.1147L29.2457 38.1149Z" fill="#A247CC"/>
<path opacity="0.2" d="M22.104 19.6996L21.1257 22.0129C21.0385 22.2191 21.0337 22.451 21.1123 22.6607L22.3691 26.015C22.4205 26.1524 22.5057 26.2746 22.6168 26.3704C22.7278 26.4663 22.8612 26.5327 23.0046 26.5635L23.5977 26.691L24.5085 24.5288C24.5754 24.3701 24.6875 24.2347 24.831 24.1395C24.9744 24.0443 25.1427 23.9935 25.3149 23.9935H27.6495C27.7975 23.9935 27.943 23.956 28.0725 23.8844L29.4115 23.145C29.4704 23.1125 29.5254 23.0732 29.5754 23.028L32.5188 20.3661C32.6656 20.2333 32.7631 20.0547 32.7952 19.8593C32.8274 19.664 32.7924 19.4635 32.6959 19.2906L31.675 17.462L31.6751 17.4615C30.0181 17.0272 28.2801 17.004 26.6121 17.394C24.9441 17.784 23.3965 18.5754 22.1039 19.6995L22.104 19.6996Z" fill="#A247CC"/>
<path d="M29 38.1177C34.799 38.1177 39.5 33.4167 39.5 27.6177C39.5 21.8187 34.799 17.1177 29 17.1177C23.201 17.1177 18.5 21.8187 18.5 27.6177C18.5 33.4167 23.201 38.1177 29 38.1177Z" stroke="#A247CC" stroke-width="1.75846" stroke-miterlimit="10"/>
<path d="M38.4242 32.2521L32.4867 28.6003C32.3826 28.5363 32.2663 28.4948 32.1452 28.4784L29.6494 28.142C29.462 28.1167 29.2714 28.1529 29.1063 28.245C28.9411 28.3371 28.8102 28.4802 28.7333 28.653L27.235 32.015C27.1653 32.1713 27.143 32.3447 27.1708 32.5136C27.1987 32.6825 27.2755 32.8395 27.3917 32.9652L29.4479 35.1893C29.5412 35.2901 29.6093 35.4114 29.647 35.5435C29.6846 35.6756 29.6906 35.8146 29.6645 35.9494L29.2457 38.1147" stroke="#A247CC" stroke-width="1.75846" stroke-linecap="round" stroke-linejoin="round"/>
<path d="M22.104 19.6996L21.1257 22.0129C21.0385 22.2192 21.0337 22.451 21.1123 22.6607L22.3691 26.015C22.4205 26.1524 22.5057 26.2746 22.6168 26.3705C22.7278 26.4663 22.8612 26.5327 23.0046 26.5635L25.3485 27.0673C25.4785 27.0952 25.6005 27.1525 25.7051 27.2346C25.8097 27.3168 25.8942 27.4218 25.9522 27.5415L26.3684 28.4014C26.4401 28.5494 26.552 28.6742 26.6912 28.7615C26.8305 28.8489 26.9916 28.8952 27.156 28.8952H28.6252" stroke="#A247CC" stroke-width="1.75846" stroke-linecap="round" stroke-linejoin="round"/>
<path d="M31.6752 17.462L32.696 19.2906C32.7925 19.4635 32.8276 19.664 32.7954 19.8593C32.7632 20.0547 32.6658 20.2333 32.5189 20.3661L29.5756 23.028C29.5256 23.0732 29.4706 23.1125 29.4117 23.145L28.0727 23.8844C27.9432 23.956 27.7977 23.9935 27.6497 23.9935H25.3151C25.1429 23.9935 24.9746 24.0443 24.8311 24.1395C24.6877 24.2347 24.5755 24.3701 24.5087 24.5288L23.5979 26.691" stroke="#A247CC" stroke-width="1.75846" stroke-linecap="round" stroke-linejoin="round"/>
<path d="M22.74 56.7457L21.072 51.1057H19.872L18.204 56.7457L16.668 50.2177H15.276L17.496 58.6177H18.84L20.472 53.2897L22.104 58.6177H23.448L25.668 50.2177H24.276L22.74 56.7457ZM28.7322 53.5777C29.5842 53.5777 30.0882 54.1417 30.1962 54.8977H27.2562C27.4002 54.1177 27.9282 53.5777 28.7322 53.5777ZM31.5162 55.4017C31.5162 54.0457 30.6642 52.4737 28.7322 52.4737C26.7402 52.4737 25.9122 54.1537 25.9122 55.5937C25.9122 57.0337 26.7402 58.7137 28.7322 58.7137C30.0642 58.7137 30.7722 58.1977 31.3842 57.0097L30.3162 56.5897C30.0162 57.2257 29.4042 57.6097 28.7322 57.6097C27.7842 57.6097 27.2322 56.8897 27.2322 55.9417H31.5162V55.4017ZM38.4521 55.5937C38.4521 53.6737 37.5041 52.4737 35.7281 52.4737C35.4281 52.4737 35.1281 52.5577 34.8041 52.7137C34.4801 52.8697 34.2521 53.0377 34.1081 53.2417V50.1217H32.8601V58.6177H34.1081V57.9217C34.3361 58.3177 35.0201 58.7137 35.7521 58.7137C37.5161 58.7137 38.4521 57.5617 38.4521 55.5937ZM36.7001 57.0697C36.4121 57.4297 36.0401 57.6097 35.5841 57.6097C35.1281 57.6097 34.7561 57.4297 34.4681 57.0697C34.1801 56.6977 34.0361 56.2057 34.0361 55.5937C34.0361 54.9817 34.1801 54.4897 34.4681 54.1297C34.7561 53.7577 35.1281 53.5777 35.5841 53.5777C36.0401 53.5777 36.4121 53.7577 36.7001 54.1297C36.9881 54.4897 37.1321 54.9817 37.1321 55.5937C37.1321 56.2057 36.9881 56.6977 36.7001 57.0697ZM16.128 73.6177H18.6C19.68 73.6177 20.592 73.2577 21.336 72.5257C22.092 71.7937 22.464 70.7617 22.464 69.4177C22.464 68.0737 22.092 67.0417 21.336 66.3097C20.592 65.5777 19.68 65.2177 18.6 65.2177H16.128V73.6177ZM18.216 66.4657C19.692 66.4657 21.12 67.1257 21.12 69.4177C21.12 71.7097 19.692 72.3697 18.216 72.3697H17.448V66.4657H18.216ZM26.5291 68.5777C27.3811 68.5777 27.8851 69.1417 27.9931 69.8977H25.0531C25.1971 69.1177 25.7251 68.5777 26.5291 68.5777ZM29.3131 70.4017C29.3131 69.0457 28.4611 67.4737 26.5291 67.4737C24.5371 67.4737 23.7091 69.1537 23.7091 70.5937C23.7091 72.0337 24.5371 73.7137 26.5291 73.7137C27.8611 73.7137 28.5691 73.1977 29.1811 72.0097L28.1131 71.5897C27.8131 72.2257 27.2011 72.6097 26.5291 72.6097C25.5811 72.6097 25.0291 71.8897 25.0291 70.9417H29.3131V70.4017ZM31.9253 73.6177H33.1013L35.1053 67.5697H33.8333L32.5133 71.9137L31.1933 67.5697H29.9213L31.9253 73.6177ZM38.3885 68.5777C39.2405 68.5777 39.7445 69.1417 39.8525 69.8977H36.9125C37.0565 69.1177 37.5845 68.5777 38.3885 68.5777ZM41.1725 70.4017C41.1725 69.0457 40.3205 67.4737 38.3885 67.4737C36.3965 67.4737 35.5685 69.1537 35.5685 70.5937C35.5685 72.0337 36.3965 73.7137 38.3885 73.7137C39.7205 73.7137 40.4285 73.1977 41.0405 72.0097L39.9725 71.5897C39.6725 72.2257 39.0605 72.6097 38.3885 72.6097C37.4405 72.6097 36.8885 71.8897 36.8885 70.9417H41.1725V70.4017ZM42.5275 73.6177H43.7755V65.1217H42.5275V73.6177ZM45.935 72.8137C46.475 73.4137 47.207 73.7137 48.107 73.7137C49.007 73.7137 49.727 73.4137 50.267 72.8137C50.807 72.2137 51.083 71.4697 51.083 70.5937C51.083 69.7177 50.807 68.9737 50.267 68.3737C49.727 67.7737 49.007 67.4737 48.107 67.4737C47.207 67.4737 46.475 67.7737 45.935 68.3737C45.395 68.9737 45.131 69.7177 45.131 70.5937C45.131 71.4697 45.395 72.2137 45.935 72.8137ZM46.883 69.1777C47.183 68.7817 47.591 68.5777 48.107 68.5777C48.623 68.5777 49.031 68.7817 49.319 69.1777C49.619 69.5737 49.763 70.0417 49.763 70.5937C49.763 71.1457 49.619 71.6257 49.319 72.0217C49.031 72.4177 48.623 72.6097 48.107 72.6097C47.591 72.6097 47.183 72.4177 46.883 72.0217C46.595 71.6257 46.451 71.1457 46.451 70.5937C46.451 70.0417 46.595 69.5737 46.883 69.1777ZM58.1631 70.5937C58.1631 68.6257 57.2271 67.4737 55.4631 67.4737C54.7311 67.4737 54.0471 67.8697 53.8191 68.2657V67.5697H52.5711V76.0657H53.8191V72.9457C54.1191 73.3777 54.7311 73.7137 55.4391 73.7137C57.2151 73.7137 58.1631 72.5137 58.1631 70.5937ZM56.4111 72.0697C56.1231 72.4297 55.7511 72.6097 55.2951 72.6097C54.8391 72.6097 54.4671 72.4297 54.1791 72.0697C53.8911 71.6977 53.7471 71.2057 53.7471 70.5937C53.7471 69.9817 53.8911 69.4897 54.1791 69.1297C54.4671 68.7577 54.8391 68.5777 55.2951 68.5777C55.7511 68.5777 56.1231 68.7577 56.4111 69.1297C56.6991 69.4897 56.8431 69.9817 56.8431 70.5937C56.8431 71.2057 56.6991 71.6977 56.4111 72.0697ZM62.1072 68.5777C62.9592 68.5777 63.4632 69.1417 63.5712 69.8977H60.6312C60.7752 69.1177 61.3032 68.5777 62.1072 68.5777ZM64.8912 70.4017C64.8912 69.0457 64.0392 67.4737 62.1072 67.4737C60.1152 67.4737 59.2872 69.1537 59.2872 70.5937C59.2872 72.0337 60.1152 73.7137 62.1072 73.7137C63.4392 73.7137 64.1472 73.1977 64.7592 72.0097L63.6912 71.5897C63.3912 72.2257 62.7792 72.6097 62.1072 72.6097C61.1592 72.6097 60.6072 71.8897 60.6072 70.9417H64.8912V70.4017ZM67.4128 71.3737C67.4128 70.4737 67.5688 69.7897 67.8928 69.3097C68.2168 68.8177 68.6008 68.5777 69.0448 68.5777C69.3208 68.5777 69.5608 68.6377 69.7528 68.7577L69.9688 67.6177C69.7288 67.5217 69.4768 67.4737 69.2008 67.4737C68.5288 67.4737 67.8088 67.8697 67.4128 68.5777V67.5697H66.1648V73.6177H67.4128V71.3737Z" fill="#212121"/>
</svg>
