<svg width="216" height="114" viewBox="0 0 216 114" fill="none" xmlns="http://www.w3.org/2000/svg">
<rect width="216" height="114" rx="15" fill="#F8F8F8"/>
<path opacity="0.2" d="M28 23.7494C31.7279 23.7494 34.75 20.7273 34.75 16.9994C34.75 13.2715 31.7279 10.2494 28 10.2494C24.2721 10.2494 21.25 13.2715 21.25 16.9994C21.25 20.7273 24.2721 23.7494 28 23.7494Z" fill="#A247CC"/>
<path d="M28 23.7494C31.7279 23.7494 34.75 20.7273 34.75 16.9994C34.75 13.2715 31.7279 10.2494 28 10.2494C24.2721 10.2494 21.25 13.2715 21.25 16.9994C21.25 20.7273 24.2721 23.7494 28 23.7494Z" stroke="#A247CC" stroke-width="1.5" stroke-linecap="round" stroke-linejoin="round"/>
<path d="M34.8943 23.8937C33.0658 25.7222 30.5859 26.7494 28 26.7494C25.4141 26.7494 22.9342 25.7222 21.1057 23.8937C19.2772 22.0652 18.25 19.5853 18.25 16.9994C18.25 14.4135 19.2772 11.9336 21.1057 10.1051" stroke="#A247CC" stroke-width="1.5" stroke-linecap="round" stroke-linejoin="round"/>
<path d="M25 29.7494H31" stroke="#A247CC" stroke-width="1.5" stroke-linecap="round" stroke-linejoin="round"/>
<path d="M28 26.7494V29.7494" stroke="#A247CC" stroke-width="1.5" stroke-linecap="round" stroke-linejoin="round"/>
<path d="M47.692 26H55.108V24.128H49.672V13.4H47.692V26ZM56.4072 23.39C56.4072 25.19 57.5952 26.144 59.1972 26.144C60.4392 26.144 61.3752 25.694 62.0052 24.812L62.1852 26H63.7692V20.366C63.7692 17.972 62.5632 16.784 60.1512 16.784C58.4232 16.784 57.1092 17.756 56.7312 19.286L58.4412 19.646C58.7472 18.836 59.3052 18.44 60.1332 18.44C61.1592 18.44 61.8972 18.944 61.8972 20.024V20.42H60.3312C57.9732 20.42 56.4072 21.536 56.4072 23.39ZM58.3872 23.39C58.3872 22.526 59.1072 21.986 60.2592 21.986H61.8972V22.184C61.8972 22.922 61.6632 23.48 61.1772 23.894C60.7092 24.29 60.1512 24.488 59.5212 24.488C58.7832 24.488 58.3872 24.038 58.3872 23.39ZM66.2335 26H68.1055V22.328C68.1055 21.14 68.3395 20.204 68.7895 19.502C69.2575 18.8 69.7975 18.44 70.4275 18.44C71.3635 18.44 71.8315 18.998 71.8315 20.096V26H73.7035V19.502C73.7035 17.774 72.6415 16.784 71.0395 16.784C69.8335 16.784 68.7535 17.396 68.1055 18.476V16.928H66.2335V26ZM76.2887 19.826C76.2887 20.6 76.4867 21.23 76.9007 21.734C76.1627 22.148 75.8027 22.76 75.8027 23.57C75.8027 24.164 75.9827 24.65 76.3247 24.992C75.8027 25.478 75.5507 26.09 75.5507 26.828C75.5507 28.754 77.1707 29.816 79.5467 29.816C80.6807 29.816 81.6167 29.564 82.3727 29.042C83.1467 28.52 83.5247 27.746 83.5247 26.684C83.5247 25.01 82.3367 24.092 80.5187 24.092H78.5207C77.8907 24.092 77.5847 23.858 77.5847 23.39C77.5847 23.048 77.7467 22.778 78.0707 22.598C78.5207 22.778 79.0067 22.868 79.5287 22.868C80.4827 22.868 81.2567 22.598 81.8687 22.058C82.4807 21.5 82.7867 20.762 82.7867 19.826C82.7867 19.268 82.6607 18.764 82.3907 18.314L83.6147 17.63L82.8587 16.28L81.1847 17.18C80.6807 16.91 80.1227 16.784 79.5287 16.784C78.5927 16.784 77.8187 17.054 77.2067 17.612C76.5947 18.17 76.2887 18.908 76.2887 19.826ZM80.1227 25.676C81.1127 25.676 81.6167 26.054 81.6167 26.828C81.6167 27.692 80.8427 28.196 79.5467 28.196C78.1787 28.196 77.3507 27.638 77.3507 26.72C77.3507 26.27 77.4767 25.892 77.7467 25.622C78.0347 25.658 78.3407 25.676 78.6647 25.676H80.1227ZM79.5287 21.302C78.6827 21.302 78.1067 20.708 78.1067 19.826C78.1067 18.944 78.6827 18.35 79.5287 18.35C80.3927 18.35 80.9687 18.944 80.9687 19.826C80.9687 20.708 80.3927 21.302 79.5287 21.302ZM92.7553 16.928H90.8833V20.6C90.8833 21.788 90.6493 22.742 90.1813 23.444C89.7313 24.146 89.1913 24.488 88.5613 24.488C87.6253 24.488 87.1573 23.93 87.1573 22.832V16.928H85.2853V23.426C85.2853 25.154 86.3473 26.144 87.9493 26.144C89.1553 26.144 90.2353 25.532 90.8833 24.452V26H92.7553V16.928ZM94.9385 23.39C94.9385 25.19 96.1265 26.144 97.7285 26.144C98.9705 26.144 99.9065 25.694 100.536 24.812L100.716 26H102.3V20.366C102.3 17.972 101.094 16.784 98.6825 16.784C96.9545 16.784 95.6405 17.756 95.2625 19.286L96.9725 19.646C97.2785 18.836 97.8365 18.44 98.6645 18.44C99.6905 18.44 100.428 18.944 100.428 20.024V20.42H98.8625C96.5045 20.42 94.9385 21.536 94.9385 23.39ZM96.9185 23.39C96.9185 22.526 97.6385 21.986 98.7905 21.986H100.428V22.184C100.428 22.922 100.194 23.48 99.7085 23.894C99.2405 24.29 98.6825 24.488 98.0525 24.488C97.3145 24.488 96.9185 24.038 96.9185 23.39ZM105.011 19.826C105.011 20.6 105.209 21.23 105.623 21.734C104.885 22.148 104.525 22.76 104.525 23.57C104.525 24.164 104.705 24.65 105.047 24.992C104.525 25.478 104.273 26.09 104.273 26.828C104.273 28.754 105.893 29.816 108.269 29.816C109.403 29.816 110.339 29.564 111.095 29.042C111.869 28.52 112.247 27.746 112.247 26.684C112.247 25.01 111.059 24.092 109.241 24.092H107.243C106.613 24.092 106.307 23.858 106.307 23.39C106.307 23.048 106.469 22.778 106.793 22.598C107.243 22.778 107.729 22.868 108.251 22.868C109.205 22.868 109.979 22.598 110.591 22.058C111.203 21.5 111.509 20.762 111.509 19.826C111.509 19.268 111.383 18.764 111.113 18.314L112.337 17.63L111.581 16.28L109.907 17.18C109.403 16.91 108.845 16.784 108.251 16.784C107.315 16.784 106.541 17.054 105.929 17.612C105.317 18.17 105.011 18.908 105.011 19.826ZM108.845 25.676C109.835 25.676 110.339 26.054 110.339 26.828C110.339 27.692 109.565 28.196 108.269 28.196C106.901 28.196 106.073 27.638 106.073 26.72C106.073 26.27 106.199 25.892 106.469 25.622C106.757 25.658 107.063 25.676 107.387 25.676H108.845ZM108.251 21.302C107.405 21.302 106.829 20.708 106.829 19.826C106.829 18.944 107.405 18.35 108.251 18.35C109.115 18.35 109.691 18.944 109.691 19.826C109.691 20.708 109.115 21.302 108.251 21.302ZM117.54 18.44C118.818 18.44 119.574 19.286 119.736 20.42H115.326C115.542 19.25 116.334 18.44 117.54 18.44ZM121.716 21.176C121.716 19.142 120.438 16.784 117.54 16.784C114.552 16.784 113.31 19.304 113.31 21.464C113.31 23.624 114.552 26.144 117.54 26.144C119.538 26.144 120.6 25.37 121.518 23.588L119.916 22.958C119.466 23.912 118.548 24.488 117.54 24.488C116.118 24.488 115.29 23.408 115.29 21.986H121.716V21.176ZM126.694 16.784C125.884 16.784 125.218 17.036 124.696 17.54C124.174 18.026 123.904 18.638 123.904 19.358C123.904 20.474 124.552 21.302 125.848 21.842C126.136 21.968 126.802 22.202 127.072 22.328C127.216 22.382 127.378 22.472 127.54 22.58C127.882 22.778 128.008 22.994 128.008 23.3C128.008 24.092 127.594 24.488 126.784 24.488C125.938 24.488 125.272 23.948 124.786 22.85L123.202 23.714C123.76 25.028 124.984 26.144 126.712 26.144C127.666 26.144 128.422 25.874 128.998 25.316C129.574 24.758 129.862 24.074 129.862 23.264C129.79 22.274 129.448 21.734 128.728 21.302C128.224 20.96 127.954 20.87 127.324 20.636C126.55 20.348 126.244 20.204 125.938 19.898C125.776 19.736 125.704 19.538 125.704 19.34C125.704 18.764 126.1 18.44 126.604 18.44C127.234 18.44 127.756 18.71 128.188 19.268L129.376 18.224C128.8 17.342 127.792 16.784 126.694 16.784Z" fill="#212121"/>
<path d="M17.692 67H25.342V65.128H19.672V61.24H24.1V59.368H19.672V56.272H25.162V54.4H17.692V67ZM27.6906 67H29.5626V63.328C29.5626 62.14 29.7966 61.204 30.2466 60.502C30.7146 59.8 31.2546 59.44 31.8846 59.44C32.8206 59.44 33.2886 59.998 33.2886 61.096V67H35.1606V60.502C35.1606 58.774 34.0986 57.784 32.4966 57.784C31.2906 57.784 30.2106 58.396 29.5626 59.476V57.928H27.6906V67ZM37.7457 60.826C37.7457 61.6 37.9437 62.23 38.3577 62.734C37.6197 63.148 37.2597 63.76 37.2597 64.57C37.2597 65.164 37.4397 65.65 37.7817 65.992C37.2597 66.478 37.0077 67.09 37.0077 67.828C37.0077 69.754 38.6277 70.816 41.0037 70.816C42.1377 70.816 43.0737 70.564 43.8297 70.042C44.6037 69.52 44.9817 68.746 44.9817 67.684C44.9817 66.01 43.7937 65.092 41.9757 65.092H39.9777C39.3477 65.092 39.0417 64.858 39.0417 64.39C39.0417 64.048 39.2037 63.778 39.5277 63.598C39.9777 63.778 40.4637 63.868 40.9857 63.868C41.9397 63.868 42.7137 63.598 43.3257 63.058C43.9377 62.5 44.2437 61.762 44.2437 60.826C44.2437 60.268 44.1177 59.764 43.8477 59.314L45.0717 58.63L44.3157 57.28L42.6417 58.18C42.1377 57.91 41.5797 57.784 40.9857 57.784C40.0497 57.784 39.2757 58.054 38.6637 58.612C38.0517 59.17 37.7457 59.908 37.7457 60.826ZM41.5797 66.676C42.5697 66.676 43.0737 67.054 43.0737 67.828C43.0737 68.692 42.2997 69.196 41.0037 69.196C39.6357 69.196 38.8077 68.638 38.8077 67.72C38.8077 67.27 38.9337 66.892 39.2037 66.622C39.4917 66.658 39.7977 66.676 40.1217 66.676H41.5797ZM40.9857 62.302C40.1397 62.302 39.5637 61.708 39.5637 60.826C39.5637 59.944 40.1397 59.35 40.9857 59.35C41.8497 59.35 42.4257 59.944 42.4257 60.826C42.4257 61.708 41.8497 62.302 40.9857 62.302ZM46.885 67H48.757V54.256H46.885V67ZM51.1201 56.29C51.6241 56.776 52.4881 56.776 52.9741 56.29C53.4781 55.786 53.4781 54.958 52.9741 54.454C52.4701 53.932 51.6421 53.932 51.1381 54.454C50.6341 54.958 50.6341 55.786 51.1201 56.29ZM51.1201 67H52.9921V57.928H51.1201V67ZM58.3038 57.784C57.4938 57.784 56.8278 58.036 56.3058 58.54C55.7838 59.026 55.5138 59.638 55.5138 60.358C55.5138 61.474 56.1618 62.302 57.4578 62.842C57.7458 62.968 58.4118 63.202 58.6818 63.328C58.8258 63.382 58.9878 63.472 59.1498 63.58C59.4918 63.778 59.6178 63.994 59.6178 64.3C59.6178 65.092 59.2038 65.488 58.3938 65.488C57.5478 65.488 56.8818 64.948 56.3958 63.85L54.8118 64.714C55.3698 66.028 56.5938 67.144 58.3218 67.144C59.2758 67.144 60.0318 66.874 60.6078 66.316C61.1838 65.758 61.4718 65.074 61.4718 64.264C61.3998 63.274 61.0578 62.734 60.3378 62.302C59.8338 61.96 59.5638 61.87 58.9338 61.636C58.1598 61.348 57.8538 61.204 57.5478 60.898C57.3858 60.736 57.3138 60.538 57.3138 60.34C57.3138 59.764 57.7098 59.44 58.2138 59.44C58.8438 59.44 59.3658 59.71 59.7978 60.268L60.9858 59.224C60.4098 58.342 59.4018 57.784 58.3038 57.784ZM63.5324 67H65.4044V63.166C65.4044 62.05 65.6744 61.15 66.1964 60.466C66.7184 59.782 67.2764 59.44 67.8524 59.44C68.7884 59.44 69.2744 59.8 69.2744 61.096V67H71.1464V60.61C71.1464 58.72 70.1744 57.784 68.4644 57.784C67.2044 57.784 66.1784 58.342 65.4044 59.476V54.256H63.5324V67Z" fill="#212121"/>
<path d="M84.75 62H101.25" stroke="#A247CC" stroke-width="1.5" stroke-linecap="round" stroke-linejoin="round"/>
<path d="M94.5 55.25L101.25 62L94.5 68.75" stroke="#A247CC" stroke-width="1.5" stroke-linecap="round" stroke-linejoin="round"/>
<path d="M114.818 67H116.006V60.988H120.974V59.872H116.006V55.516H122.054V54.4H114.818V67ZM124.237 67H125.353V54.256H124.237V67ZM128.138 64.156C128.138 66.046 129.2 67.144 130.928 67.144C132.224 67.144 133.412 66.334 134.042 65.11V67H135.158V57.928H134.042V61.906C134.042 63.166 133.754 64.174 133.196 64.948C132.638 65.722 131.954 66.1 131.108 66.1C129.866 66.1 129.254 65.398 129.254 64.012V57.928H128.138V64.156ZM145.766 61.96C145.766 60.718 145.388 59.71 144.65 58.936C143.912 58.162 142.958 57.784 141.788 57.784C140.582 57.784 139.61 58.234 138.872 59.116C138.134 59.998 137.756 61.114 137.756 62.464C137.756 63.814 138.134 64.948 138.872 65.83C139.61 66.712 140.582 67.144 141.788 67.144C143.516 67.144 144.65 66.442 145.568 64.642L144.578 64.156C143.912 65.542 143.156 66.1 141.788 66.1C140.006 66.1 138.926 64.624 138.926 62.464H145.766V61.96ZM141.788 58.828C143.39 58.828 144.398 59.818 144.614 61.42H138.998C139.304 59.89 140.33 58.828 141.788 58.828ZM155.252 60.772C155.252 58.882 154.19 57.784 152.462 57.784C151.166 57.784 149.978 58.594 149.348 59.818V57.928H148.232V67H149.348V63.022C149.348 61.762 149.618 60.754 150.176 59.98C150.734 59.206 151.436 58.828 152.282 58.828C153.524 58.828 154.136 59.53 154.136 60.916V67H155.252V60.772ZM158.524 58.972V64.426C158.524 66.244 159.406 67.144 160.792 67.144C161.458 67.144 161.98 67.036 162.376 66.82L162.07 65.812C161.764 66.01 161.386 66.1 160.936 66.1C160.09 66.1 159.676 65.596 159.676 64.606V58.972H162.088V57.928H159.676V54.256L158.524 54.994V57.928H156.922V58.972H158.524Z" fill="#212121"/>
<path d="M22.21 93.852C23.434 93.852 24.388 93.51 25.072 92.808C25.774 92.106 26.116 91.224 26.116 90.126C26.116 89.028 25.774 88.146 25.072 87.444C24.388 86.742 23.434 86.4 22.21 86.4H17.692V99H19.672V93.852H22.21ZM19.672 91.98V88.272H22.3C23.434 88.272 24.1 88.956 24.1 90.126C24.1 91.296 23.434 91.98 22.3 91.98H19.672ZM28.5646 97.794C29.3746 98.694 30.4726 99.144 31.8226 99.144C33.1726 99.144 34.2526 98.694 35.0626 97.794C35.8726 96.894 36.2866 95.778 36.2866 94.464C36.2866 93.15 35.8726 92.034 35.0626 91.134C34.2526 90.234 33.1726 89.784 31.8226 89.784C30.4726 89.784 29.3746 90.234 28.5646 91.134C27.7546 92.034 27.3586 93.15 27.3586 94.464C27.3586 95.778 27.7546 96.894 28.5646 97.794ZM29.9866 92.34C30.4366 91.746 31.0486 91.44 31.8226 91.44C32.5966 91.44 33.2086 91.746 33.6406 92.34C34.0906 92.934 34.3066 93.636 34.3066 94.464C34.3066 95.292 34.0906 96.012 33.6406 96.606C33.2086 97.2 32.5966 97.488 31.8226 97.488C31.0486 97.488 30.4366 97.2 29.9866 96.606C29.5546 96.012 29.3386 95.292 29.3386 94.464C29.3386 93.636 29.5546 92.934 29.9866 92.34ZM40.1446 95.634C40.1446 94.284 40.3786 93.258 40.8646 92.538C41.3506 91.8 41.9266 91.44 42.5926 91.44C43.0066 91.44 43.3666 91.53 43.6546 91.71L43.9786 90C43.6186 89.856 43.2406 89.784 42.8266 89.784C41.8186 89.784 40.7386 90.378 40.1446 91.44V89.928H38.2726V99H40.1446V95.634ZM47.0521 91.584V95.904C47.0521 98.046 48.2221 99.144 50.0221 99.144C50.5441 99.144 51.0301 99.036 51.4801 98.82L50.9941 97.236C50.7241 97.398 50.4361 97.488 50.1301 97.488C49.3201 97.488 48.9241 97.002 48.9241 96.012V91.584H51.2821V89.928H48.9241V86.256L47.0521 87.426V89.928H45.5401V91.584H47.0521ZM60.6283 89.928H58.7563V93.6C58.7563 94.788 58.5223 95.742 58.0543 96.444C57.6043 97.146 57.0643 97.488 56.4343 97.488C55.4983 97.488 55.0303 96.93 55.0303 95.832V89.928H53.1583V96.426C53.1583 98.154 54.2203 99.144 55.8223 99.144C57.0283 99.144 58.1083 98.532 58.7563 97.452V99H60.6283V89.928ZM63.3043 92.826C63.3043 93.6 63.5023 94.23 63.9163 94.734C63.1783 95.148 62.8183 95.76 62.8183 96.57C62.8183 97.164 62.9983 97.65 63.3403 97.992C62.8183 98.478 62.5663 99.09 62.5663 99.828C62.5663 101.754 64.1863 102.816 66.5623 102.816C67.6963 102.816 68.6323 102.564 69.3883 102.042C70.1623 101.52 70.5403 100.746 70.5403 99.684C70.5403 98.01 69.3523 97.092 67.5343 97.092H65.5363C64.9063 97.092 64.6003 96.858 64.6003 96.39C64.6003 96.048 64.7623 95.778 65.0863 95.598C65.5363 95.778 66.0223 95.868 66.5443 95.868C67.4983 95.868 68.2723 95.598 68.8843 95.058C69.4963 94.5 69.8023 93.762 69.8023 92.826C69.8023 92.268 69.6763 91.764 69.4063 91.314L70.6303 90.63L69.8743 89.28L68.2003 90.18C67.6963 89.91 67.1383 89.784 66.5443 89.784C65.6083 89.784 64.8343 90.054 64.2223 90.612C63.6103 91.17 63.3043 91.908 63.3043 92.826ZM67.1383 98.676C68.1283 98.676 68.6323 99.054 68.6323 99.828C68.6323 100.692 67.8583 101.196 66.5623 101.196C65.1943 101.196 64.3663 100.638 64.3663 99.72C64.3663 99.27 64.4923 98.892 64.7623 98.622C65.0503 98.658 65.3563 98.676 65.6803 98.676H67.1383ZM66.5443 94.302C65.6983 94.302 65.1223 93.708 65.1223 92.826C65.1223 91.944 65.6983 91.35 66.5443 91.35C67.4083 91.35 67.9843 91.944 67.9843 92.826C67.9843 93.708 67.4083 94.302 66.5443 94.302ZM79.7709 89.928H77.8989V93.6C77.8989 94.788 77.6649 95.742 77.1969 96.444C76.7469 97.146 76.2069 97.488 75.5769 97.488C74.6409 97.488 74.1729 96.93 74.1729 95.832V89.928H72.3009V96.426C72.3009 98.154 73.3629 99.144 74.9649 99.144C76.1709 99.144 77.2509 98.532 77.8989 97.452V99H79.7709V89.928ZM86.1511 91.44C87.4291 91.44 88.1851 92.286 88.3471 93.42H83.9371C84.1531 92.25 84.9451 91.44 86.1511 91.44ZM90.3271 94.176C90.3271 92.142 89.0491 89.784 86.1511 89.784C83.1631 89.784 81.9211 92.304 81.9211 94.464C81.9211 96.624 83.1631 99.144 86.1511 99.144C88.1491 99.144 89.2111 98.37 90.1291 96.588L88.5271 95.958C88.0771 96.912 87.1591 97.488 86.1511 97.488C84.7291 97.488 83.9011 96.408 83.9011 94.986H90.3271V94.176ZM95.3058 89.784C94.4958 89.784 93.8298 90.036 93.3078 90.54C92.7858 91.026 92.5158 91.638 92.5158 92.358C92.5158 93.474 93.1638 94.302 94.4598 94.842C94.7478 94.968 95.4138 95.202 95.6838 95.328C95.8278 95.382 95.9898 95.472 96.1518 95.58C96.4938 95.778 96.6198 95.994 96.6198 96.3C96.6198 97.092 96.2058 97.488 95.3958 97.488C94.5498 97.488 93.8838 96.948 93.3978 95.85L91.8138 96.714C92.3718 98.028 93.5958 99.144 95.3238 99.144C96.2778 99.144 97.0338 98.874 97.6098 98.316C98.1858 97.758 98.4738 97.074 98.4738 96.264C98.4018 95.274 98.0598 94.734 97.3398 94.302C96.8358 93.96 96.5658 93.87 95.9358 93.636C95.1618 93.348 94.8558 93.204 94.5498 92.898C94.3878 92.736 94.3158 92.538 94.3158 92.34C94.3158 91.764 94.7118 91.44 95.2158 91.44C95.8457 91.44 96.3678 91.71 96.7998 92.268L97.9878 91.224C97.4118 90.342 96.4038 89.784 95.3058 89.784ZM104.257 91.44C105.535 91.44 106.291 92.286 106.453 93.42H102.043C102.259 92.25 103.051 91.44 104.257 91.44ZM108.433 94.176C108.433 92.142 107.155 89.784 104.257 89.784C101.269 89.784 100.027 92.304 100.027 94.464C100.027 96.624 101.269 99.144 104.257 99.144C106.255 99.144 107.317 98.37 108.235 96.588L106.633 95.958C106.183 96.912 105.265 97.488 104.257 97.488C102.835 97.488 102.007 96.408 102.007 94.986H108.433V94.176Z" fill="#212121"/>
<path d="M121.75 94H138.25" stroke="#A247CC" stroke-width="1.5" stroke-linecap="round" stroke-linejoin="round"/>
<path d="M131.5 87.25L138.25 94L131.5 100.75" stroke="#A247CC" stroke-width="1.5" stroke-linecap="round" stroke-linejoin="round"/>
<path d="M159.468 97.11L153.222 86.4H151.818V99H153.006V88.326L159.252 99H160.656V86.4H159.468V97.11ZM164.606 96.39C164.606 95.166 165.632 94.464 167.648 94.464H169.124V94.806C169.124 95.922 168.836 96.75 168.26 97.29C167.702 97.83 167.072 98.1 166.37 98.1C165.272 98.1 164.606 97.488 164.606 96.39ZM170.24 92.988C170.24 91.998 169.934 91.206 169.322 90.648C168.728 90.072 167.954 89.784 167.036 89.784C165.38 89.784 164.03 90.756 163.796 92.268L164.876 92.52C165.218 91.386 165.938 90.828 167.036 90.828C168.332 90.828 169.124 91.512 169.124 93.024V93.42H167.612C165.002 93.42 163.436 94.428 163.436 96.39C163.436 98.262 164.606 99.144 166.262 99.144C167.576 99.144 168.53 98.622 169.124 97.596L169.394 99H170.24V92.988ZM173.498 90.972V96.426C173.498 98.244 174.38 99.144 175.766 99.144C176.432 99.144 176.954 99.036 177.35 98.82L177.044 97.812C176.738 98.01 176.36 98.1 175.91 98.1C175.064 98.1 174.65 97.596 174.65 96.606V90.972H177.062V89.928H174.65V86.256L173.498 86.994V89.928H171.896V90.972H173.498ZM179.241 87.984C179.601 88.326 180.213 88.326 180.555 87.984C180.915 87.624 180.915 87.012 180.555 86.67C180.213 86.31 179.601 86.31 179.241 86.67C178.899 87.012 178.899 87.624 179.241 87.984ZM179.349 99H180.465V89.928H179.349V99ZM186.095 97.506L183.593 89.928H182.423L185.483 99H186.707L189.767 89.928H188.597L186.095 97.506ZM199.043 93.96C199.043 92.718 198.665 91.71 197.927 90.936C197.189 90.162 196.235 89.784 195.065 89.784C193.859 89.784 192.887 90.234 192.149 91.116C191.411 91.998 191.033 93.114 191.033 94.464C191.033 95.814 191.411 96.948 192.149 97.83C192.887 98.712 193.859 99.144 195.065 99.144C196.793 99.144 197.927 98.442 198.845 96.642L197.855 96.156C197.189 97.542 196.433 98.1 195.065 98.1C193.283 98.1 192.203 96.624 192.203 94.464H199.043V93.96ZM195.065 90.828C196.667 90.828 197.675 91.818 197.891 93.42H192.275C192.581 91.89 193.607 90.828 195.065 90.828Z" fill="#212121"/>
</svg>
