<svg width="90" height="90" viewBox="0 0 90 90" fill="none" xmlns="http://www.w3.org/2000/svg">
<rect width="90" height="90" rx="15" fill="#F8F8F8"/>
<path opacity="0.2" d="M29 16.2427C26.6794 16.2427 24.4538 17.1646 22.8128 18.8055C21.1719 20.4464 20.25 22.672 20.25 24.9927C20.25 32.8677 29 38.9927 29 38.9927C29 38.9927 37.75 32.8677 37.75 24.9927C37.75 22.672 36.8281 20.4464 35.1872 18.8055C33.5462 17.1646 31.3206 16.2427 29 16.2427ZM29 28.4927C28.3078 28.4927 27.6311 28.2874 27.0555 27.9028C26.4799 27.5182 26.0313 26.9716 25.7664 26.3321C25.5015 25.6925 25.4322 24.9888 25.5673 24.3099C25.7023 23.6309 26.0356 23.0073 26.5251 22.5178C27.0146 22.0283 27.6383 21.695 28.3172 21.5599C28.9961 21.4249 29.6999 21.4942 30.3394 21.7591C30.9789 22.024 31.5256 22.4726 31.9101 23.0482C32.2947 23.6238 32.5 24.3004 32.5 24.9927C32.5 25.9209 32.1312 26.8112 31.4749 27.4675C30.8185 28.1239 29.9283 28.4927 29 28.4927V28.4927Z" fill="#A247CC"/>
<path d="M29 28.4927C30.933 28.4927 32.5 26.9257 32.5 24.9927C32.5 23.0597 30.933 21.4927 29 21.4927C27.067 21.4927 25.5 23.0597 25.5 24.9927C25.5 26.9257 27.067 28.4927 29 28.4927Z" stroke="#A247CC" stroke-width="1.75" stroke-linecap="round" stroke-linejoin="round"/>
<path d="M37.75 24.9927C37.75 32.8677 29 38.9927 29 38.9927C29 38.9927 20.25 32.8677 20.25 24.9927C20.25 22.672 21.1719 20.4464 22.8128 18.8055C24.4538 17.1645 26.6794 16.2427 29 16.2427C31.3206 16.2427 33.5462 17.1645 35.1872 18.8055C36.8281 20.4464 37.75 22.672 37.75 24.9927V24.9927Z" stroke="#A247CC" stroke-width="1.75" stroke-linecap="round" stroke-linejoin="round"/>
<path d="M16.128 58.6177H19.248C20.916 58.6177 21.888 57.7177 21.888 56.1457C21.888 55.1737 21.408 54.3697 20.604 54.0337C21.096 53.7817 21.456 53.0737 21.456 52.4137C21.456 51.0097 20.544 50.2177 19.104 50.2177H16.128V58.6177ZM18.984 51.4657C19.752 51.4657 20.136 51.8137 20.136 52.4977C20.136 53.1817 19.752 53.5297 18.984 53.5297H17.448V51.4657H18.984ZM19.068 54.7777C20.052 54.7777 20.544 55.2097 20.544 56.0737C20.544 56.9377 20.052 57.3697 19.068 57.3697H17.448V54.7777H19.068ZM24.5808 56.3737C24.5808 55.4737 24.7368 54.7897 25.0608 54.3097C25.3848 53.8177 25.7688 53.5777 26.2128 53.5777C26.4888 53.5777 26.7288 53.6377 26.9208 53.7577L27.1368 52.6177C26.8968 52.5217 26.6448 52.4737 26.3688 52.4737C25.6968 52.4737 24.9768 52.8697 24.5808 53.5777V52.5697H23.3328V58.6177H24.5808V56.3737ZM27.61 56.8777C27.61 58.0777 28.402 58.7137 29.47 58.7137C30.298 58.7137 30.922 58.4137 31.342 57.8257L31.462 58.6177H32.518V54.8617C32.518 53.2657 31.714 52.4737 30.106 52.4737C28.954 52.4737 28.078 53.1217 27.826 54.1417L28.966 54.3817C29.17 53.8417 29.542 53.5777 30.094 53.5777C30.778 53.5777 31.27 53.9137 31.27 54.6337V54.8977H30.226C28.654 54.8977 27.61 55.6417 27.61 56.8777ZM28.93 56.8777C28.93 56.3017 29.41 55.9417 30.178 55.9417H31.27V56.0737C31.27 56.5657 31.114 56.9377 30.79 57.2137C30.478 57.4777 30.106 57.6097 29.686 57.6097C29.194 57.6097 28.93 57.3097 28.93 56.8777ZM36.4049 53.6737L33.6809 58.1137V58.6177H38.1569V57.5137H35.3009L38.0249 53.0737V52.5697H33.8609V53.6737H36.4049ZM39.6322 51.4777C39.9682 51.8017 40.5442 51.8017 40.8682 51.4777C41.2042 51.1417 41.2042 50.5897 40.8682 50.2537C40.5322 49.9057 39.9802 49.9057 39.6442 50.2537C39.3082 50.5897 39.3082 51.1417 39.6322 51.4777ZM39.6322 58.6177H40.8802V52.5697H39.6322V58.6177ZM42.4689 58.6177H43.7169V50.1217H42.4689V58.6177ZM45.9183 60.2017L47.5503 57.0817H45.8343L44.9823 60.2017H45.9183ZM56.8933 51.5377C56.3653 50.5897 55.5973 50.1217 54.5773 50.1217C53.9653 50.1217 53.4373 50.3377 53.0173 50.7577C52.5973 51.1777 52.3813 51.6937 52.3813 52.3297C52.3813 54.9217 55.9573 54.5617 55.9573 56.2057C55.9573 56.9377 55.4293 57.4657 54.6733 57.4657C53.8453 57.4657 53.2813 56.8777 52.9813 55.6897L51.9013 56.3737C52.2013 57.7657 53.2333 58.7137 54.6733 58.7137C55.4413 58.7137 56.0653 58.4737 56.5573 58.0057C57.0493 57.5377 57.3013 56.9137 57.3013 56.1577C57.3133 54.6457 55.9813 54.0457 54.9733 53.6017C54.2653 53.2657 53.7013 52.8457 53.7013 52.2337C53.7013 51.7177 54.0493 51.3217 54.5773 51.3217C55.0813 51.3217 55.5013 51.6337 55.8253 52.2457L56.8933 51.5377ZM61.7963 55.1857C62.6123 55.1857 63.2483 54.9577 63.7043 54.4897C64.1723 54.0217 64.4003 53.4337 64.4003 52.7017C64.4003 51.9697 64.1723 51.3817 63.7043 50.9137C63.2483 50.4457 62.6123 50.2177 61.7963 50.2177H58.7843V58.6177H60.1043V55.1857H61.7963ZM60.1043 53.9377V51.4657H61.8563C62.6123 51.4657 63.0563 51.9217 63.0563 52.7017C63.0563 53.4817 62.6123 53.9377 61.8563 53.9377H60.1043ZM15.108 73.6177H16.452L17.148 71.5297H20.148L20.844 73.6177H22.188L19.272 65.2177H18.024L15.108 73.6177ZM19.752 70.2817H17.544L18.648 66.8857L19.752 70.2817ZM23.5608 68.6737V71.5537C23.5608 72.9817 24.3408 73.7137 25.5408 73.7137C25.8888 73.7137 26.2128 73.6417 26.5128 73.4977L26.1888 72.4417C26.0088 72.5497 25.8168 72.6097 25.6128 72.6097C25.0728 72.6097 24.8088 72.2857 24.8088 71.6257V68.6737H26.3808V67.5697H24.8088V65.1217L23.5608 65.9017V67.5697H22.5528V68.6737H23.5608ZM27.7845 66.4777C28.1205 66.8017 28.6965 66.8017 29.0205 66.4777C29.3565 66.1417 29.3565 65.5897 29.0205 65.2537C28.6845 64.9057 28.1325 64.9057 27.7965 65.2537C27.4605 65.5897 27.4605 66.1417 27.7845 66.4777ZM27.7845 73.6177H29.0325V67.5697H27.7845V73.6177ZM36.249 70.5937C36.249 68.6737 35.301 67.4737 33.525 67.4737C33.225 67.4737 32.925 67.5577 32.601 67.7137C32.277 67.8697 32.049 68.0377 31.905 68.2417V65.1217H30.657V73.6177H31.905V72.9217C32.133 73.3177 32.817 73.7137 33.549 73.7137C35.313 73.7137 36.249 72.5617 36.249 70.5937ZM34.497 72.0697C34.209 72.4297 33.837 72.6097 33.381 72.6097C32.925 72.6097 32.553 72.4297 32.265 72.0697C31.977 71.6977 31.833 71.2057 31.833 70.5937C31.833 69.9817 31.977 69.4897 32.265 69.1297C32.553 68.7577 32.925 68.5777 33.381 68.5777C33.837 68.5777 34.209 68.7577 34.497 69.1297C34.785 69.4897 34.929 69.9817 34.929 70.5937C34.929 71.2057 34.785 71.6977 34.497 72.0697ZM37.3014 71.8777C37.3014 73.0777 38.0934 73.7137 39.1614 73.7137C39.9894 73.7137 40.6134 73.4137 41.0334 72.8257L41.1534 73.6177H42.2094V69.8617C42.2094 68.2657 41.4054 67.4737 39.7974 67.4737C38.6454 67.4737 37.7694 68.1217 37.5174 69.1417L38.6574 69.3817C38.8614 68.8417 39.2334 68.5777 39.7854 68.5777C40.4694 68.5777 40.9614 68.9137 40.9614 69.6337V69.8977H39.9174C38.3454 69.8977 37.3014 70.6417 37.3014 71.8777ZM38.6214 71.8777C38.6214 71.3017 39.1014 70.9417 39.8694 70.9417H40.9614V71.0737C40.9614 71.5657 40.8054 71.9377 40.4814 72.2137C40.1694 72.4777 39.7974 72.6097 39.3774 72.6097C38.8854 72.6097 38.6214 72.3097 38.6214 71.8777ZM43.7923 66.4777C44.1283 66.8017 44.7043 66.8017 45.0283 66.4777C45.3643 66.1417 45.3643 65.5897 45.0283 65.2537C44.6923 64.9057 44.1403 64.9057 43.8043 65.2537C43.4683 65.5897 43.4683 66.1417 43.7923 66.4777ZM43.7923 73.6177H45.0403V67.5697H43.7923V73.6177ZM46.4772 71.8777C46.4772 73.0777 47.2692 73.7137 48.3372 73.7137C49.1652 73.7137 49.7892 73.4137 50.2092 72.8257L50.3292 73.6177H51.3852V69.8617C51.3852 68.2657 50.5812 67.4737 48.9732 67.4737C47.8212 67.4737 46.9452 68.1217 46.6932 69.1417L47.8332 69.3817C48.0372 68.8417 48.4092 68.5777 48.9612 68.5777C49.6452 68.5777 50.1372 68.9137 50.1372 69.6337V69.8977H49.0932C47.5212 69.8977 46.4772 70.6417 46.4772 71.8777ZM47.7972 71.8777C47.7972 71.3017 48.2772 70.9417 49.0452 70.9417H50.1372V71.0737C50.1372 71.5657 49.9812 71.9377 49.6572 72.2137C49.3452 72.4777 48.9732 72.6097 48.5532 72.6097C48.0612 72.6097 47.7972 72.3097 47.7972 71.8777Z" fill="#212121"/>
</svg>
