<svg width="233" height="149" viewBox="0 0 233 149" fill="none" xmlns="http://www.w3.org/2000/svg">
<rect width="233" height="149" rx="15" fill="#F8F8F8"/>
<path d="M36.25 18.5V14" stroke="#A247CC" stroke-width="1.5" stroke-linecap="round" stroke-linejoin="round"/>
<path d="M38.5 16.25H34" stroke="#A247CC" stroke-width="1.5" stroke-linecap="round" stroke-linejoin="round"/>
<path d="M31.75 10.25V13.25" stroke="#A247CC" stroke-width="1.5" stroke-linecap="round" stroke-linejoin="round"/>
<path d="M33.25 11.75H30.25" stroke="#A247CC" stroke-width="1.5" stroke-linecap="round" stroke-linejoin="round"/>
<path opacity="0.2" d="M36.7719 22.022C35.2847 22.3631 33.7353 22.3209 32.2689 21.8993C30.8025 21.4777 29.4673 20.6905 28.3884 19.6116C27.3095 18.5327 26.5223 17.1974 26.1007 15.7311C25.6791 14.2647 25.6369 12.7152 25.978 11.2281L25.9779 11.228C24.4122 11.5892 22.9717 12.3629 21.806 13.4688C20.6404 14.5747 19.792 15.9725 19.3489 17.517C18.9059 19.0615 18.8844 20.6965 19.2866 22.2521C19.6888 23.8078 20.5002 25.2274 21.6364 26.3636C22.7725 27.4998 24.1922 28.3111 25.7478 28.7134C27.3035 29.1156 28.9384 29.0941 30.4829 28.6511C32.0275 28.208 33.4253 27.3596 34.5312 26.1939C35.6371 25.0283 36.4108 23.5878 36.7719 22.0221L36.7719 22.022Z" fill="#A247CC"/>
<path d="M36.7719 22.022C35.2847 22.3631 33.7353 22.3209 32.2689 21.8993C30.8025 21.4777 29.4673 20.6905 28.3884 19.6116C27.3095 18.5327 26.5223 17.1974 26.1007 15.7311C25.6791 14.2647 25.6369 12.7152 25.978 11.2281L25.9779 11.228C24.4122 11.5892 22.9717 12.3629 21.806 13.4688C20.6404 14.5747 19.792 15.9725 19.3489 17.517C18.9059 19.0615 18.8844 20.6965 19.2866 22.2521C19.6888 23.8078 20.5002 25.2274 21.6364 26.3636C22.7725 27.4998 24.1922 28.3111 25.7478 28.7134C27.3035 29.1156 28.9384 29.0941 30.4829 28.6511C32.0275 28.208 33.4253 27.3596 34.5312 26.1939C35.6371 25.0283 36.4108 23.5878 36.7719 22.0221L36.7719 22.022Z" stroke="#A247CC" stroke-width="1.5" stroke-linecap="round" stroke-linejoin="round"/>
<path d="M54.172 15.38C53.38 13.958 52.228 13.256 50.698 13.256C49.78 13.256 48.988 13.58 48.358 14.21C47.728 14.84 47.404 15.614 47.404 16.568C47.404 20.456 52.768 19.916 52.768 22.382C52.768 23.48 51.976 24.272 50.842 24.272C49.6 24.272 48.754 23.39 48.304 21.608L46.684 22.634C47.134 24.722 48.682 26.144 50.842 26.144C51.994 26.144 52.93 25.784 53.668 25.082C54.406 24.38 54.784 23.444 54.784 22.31C54.802 20.042 52.804 19.142 51.292 18.476C50.23 17.972 49.384 17.342 49.384 16.424C49.384 15.65 49.906 15.056 50.698 15.056C51.454 15.056 52.084 15.524 52.57 16.442L54.172 15.38ZM56.9171 26H58.7891V21.662L62.2991 26H64.6751L60.6431 21.104L64.4411 16.928H62.0651L58.7891 20.546V13.256H56.9171V26ZM66.1963 15.29C66.7003 15.776 67.5643 15.776 68.0503 15.29C68.5543 14.786 68.5543 13.958 68.0503 13.454C67.5463 12.932 66.7183 12.932 66.2143 13.454C65.7103 13.958 65.7103 14.786 66.1963 15.29ZM66.1963 26H68.0683V16.928H66.1963V26ZM70.4515 26H72.3235V13.256H70.4515V26ZM74.7757 26H76.6477V13.256H74.7757V26ZM81.9405 16.784C81.1305 16.784 80.4645 17.036 79.9425 17.54C79.4205 18.026 79.1505 18.638 79.1505 19.358C79.1505 20.474 79.7985 21.302 81.0945 21.842C81.3825 21.968 82.0485 22.202 82.3185 22.328C82.4625 22.382 82.6245 22.472 82.7865 22.58C83.1285 22.778 83.2545 22.994 83.2545 23.3C83.2545 24.092 82.8405 24.488 82.0305 24.488C81.1845 24.488 80.5185 23.948 80.0325 22.85L78.4485 23.714C79.0065 25.028 80.2305 26.144 81.9585 26.144C82.9125 26.144 83.6685 25.874 84.2445 25.316C84.8205 24.758 85.1085 24.074 85.1085 23.264C85.0365 22.274 84.6945 21.734 83.9745 21.302C83.4705 20.96 83.2005 20.87 82.5705 20.636C81.7965 20.348 81.4905 20.204 81.1845 19.898C81.0225 19.736 80.9505 19.538 80.9505 19.34C80.9505 18.764 81.3465 18.44 81.8505 18.44C82.4805 18.44 83.0025 18.71 83.4345 19.268L84.6225 18.224C84.0465 17.342 83.0385 16.784 81.9405 16.784Z" fill="#A247CC"/>
<path d="M21.852 45.892C21.852 47.278 21.18 47.936 20.074 47.936C19.122 47.936 18.492 47.292 18.268 46.186L17.022 46.452C17.148 47.222 17.47 47.852 18.002 48.356C18.534 48.86 19.22 49.112 20.074 49.112C20.956 49.112 21.684 48.832 22.244 48.286C22.804 47.726 23.084 46.914 23.084 45.864V39.2H21.852V45.892ZM32.1856 41.188C31.7376 39.998 30.7016 39.088 29.1196 39.088C28.1816 39.088 27.4536 39.34 26.9216 39.858C26.3896 40.362 26.1236 41.02 26.1236 41.818C26.1796 42.994 26.5856 43.61 27.3696 44.016C27.9296 44.296 28.2656 44.394 28.9516 44.562C29.6656 44.73 29.9176 44.814 30.3516 44.996C30.5756 45.08 30.7296 45.164 30.8276 45.262C31.0096 45.444 31.1776 45.752 31.1776 46.158C31.1776 47.32 30.3936 47.936 29.1616 47.936C27.8736 47.936 27.0336 47.208 26.6556 45.752L25.5076 46.2C25.8856 48.09 27.2716 49.112 29.1616 49.112C31.1356 49.112 32.4096 48.062 32.4096 45.99C32.3676 44.968 32.0036 44.408 31.2336 44.016C30.7156 43.736 30.3376 43.624 29.6236 43.442C28.8256 43.232 28.2516 43.022 27.8876 42.812C27.5376 42.602 27.3556 42.252 27.3556 41.776C27.3556 40.824 28.0416 40.264 29.1196 40.264C30.0156 40.264 30.6736 40.754 31.1076 41.734L32.1856 41.188Z" fill="#212121"/>
<path d="M36.6759 50.498L38.7199 47.46H36.9979L35.6539 50.498H36.6759ZM36.9419 43.946C37.3759 44.38 38.1039 44.38 38.5379 43.946C38.9719 43.512 38.9719 42.784 38.5379 42.35C38.1039 41.916 37.3759 41.916 36.9419 42.35C36.5079 42.784 36.5079 43.512 36.9419 43.946Z" fill="#212121" fill-opacity="0.5"/>
<path d="M74.938 49H76.17V41.818L77.878 46.186H78.802L80.51 41.818V49H81.742V39.2H80.426L78.34 44.632L76.254 39.2H74.938V49ZM84.5016 48.048C85.1316 48.762 85.9716 49.112 87.0216 49.112C88.0716 49.112 88.9116 48.762 89.5416 48.048C90.1716 47.334 90.4936 46.48 90.4936 45.472C90.4936 44.464 90.1716 43.61 89.5416 42.896C88.9116 42.182 88.0716 41.832 87.0216 41.832C85.9716 41.832 85.1316 42.182 84.5016 42.896C83.8716 43.61 83.5496 44.464 83.5496 45.472C83.5496 46.48 83.8716 47.334 84.5016 48.048ZM85.3696 43.652C85.7756 43.148 86.3356 42.896 87.0216 42.896C87.7076 42.896 88.2676 43.148 88.6736 43.652C89.0796 44.156 89.2896 44.758 89.2896 45.472C89.2896 46.186 89.0796 46.788 88.6736 47.292C88.2676 47.796 87.7076 48.048 87.0216 48.048C86.3356 48.048 85.7756 47.796 85.3696 47.292C84.9636 46.788 84.7536 46.186 84.7536 45.472C84.7536 44.758 84.9636 44.156 85.3696 43.652ZM98.6713 44.086C98.6713 42.686 97.9573 41.832 96.5153 41.832C95.5493 41.832 94.6393 42.406 94.1213 43.246V41.944H92.9453V49H94.1213V46.158C94.1213 45.164 94.3173 44.38 94.7233 43.792C95.1293 43.19 95.6193 42.896 96.1933 42.896C97.0613 42.896 97.4953 43.372 97.4953 44.338V49H98.6713V44.086ZM102.033 44.198C102.033 44.772 102.173 45.248 102.467 45.64C101.809 45.878 101.431 46.424 101.431 47.054C101.431 47.516 101.599 47.866 101.935 48.132C101.445 48.51 101.207 49.014 101.207 49.644C101.207 51.156 102.411 51.968 104.469 51.968C105.379 51.968 106.163 51.772 106.807 51.366C107.451 50.96 107.773 50.358 107.773 49.532C107.773 48.258 106.919 47.586 105.407 47.586H103.573C102.915 47.586 102.579 47.39 102.579 46.998C102.579 46.676 102.789 46.438 103.223 46.27C103.601 46.466 104.035 46.564 104.525 46.564C105.253 46.564 105.855 46.354 106.317 45.92C106.779 45.486 107.017 44.912 107.017 44.198C107.017 43.75 106.919 43.358 106.723 43.022L107.913 42.406L107.381 41.44L105.911 42.196C105.491 41.958 105.029 41.832 104.525 41.832C103.811 41.832 103.209 42.042 102.733 42.476C102.271 42.91 102.033 43.484 102.033 44.198ZM105.379 48.594C106.177 48.594 106.569 48.944 106.569 49.644C106.569 50.442 105.799 50.932 104.469 50.932C103.195 50.932 102.383 50.428 102.383 49.602C102.383 49.098 102.579 48.748 102.985 48.538C103.181 48.58 103.419 48.594 103.713 48.594H105.379ZM103.559 43.204C103.825 42.966 104.147 42.84 104.525 42.84C104.903 42.84 105.225 42.966 105.477 43.204C105.743 43.442 105.869 43.764 105.869 44.198C105.869 44.632 105.743 44.968 105.477 45.206C105.225 45.444 104.903 45.556 104.525 45.556C104.147 45.556 103.825 45.43 103.559 45.192C103.307 44.954 103.181 44.618 103.181 44.198C103.181 43.778 103.307 43.442 103.559 43.204ZM110.547 48.048C111.177 48.762 112.017 49.112 113.067 49.112C114.117 49.112 114.957 48.762 115.587 48.048C116.217 47.334 116.539 46.48 116.539 45.472C116.539 44.464 116.217 43.61 115.587 42.896C114.957 42.182 114.117 41.832 113.067 41.832C112.017 41.832 111.177 42.182 110.547 42.896C109.917 43.61 109.595 44.464 109.595 45.472C109.595 46.48 109.917 47.334 110.547 48.048ZM111.415 43.652C111.821 43.148 112.381 42.896 113.067 42.896C113.753 42.896 114.313 43.148 114.719 43.652C115.125 44.156 115.335 44.758 115.335 45.472C115.335 46.186 115.125 46.788 114.719 47.292C114.313 47.796 113.753 48.048 113.067 48.048C112.381 48.048 111.821 47.796 111.415 47.292C111.009 46.788 110.799 46.186 110.799 45.472C110.799 44.758 111.009 44.156 111.415 43.652ZM118.5 49H120.978C122.308 49 123.358 48.58 124.142 47.754C124.94 46.928 125.332 45.71 125.332 44.1C125.332 42.49 124.94 41.272 124.142 40.446C123.358 39.62 122.308 39.2 120.978 39.2H118.5V49ZM120.852 40.376C122.91 40.376 124.016 41.468 124.016 44.1C124.016 46.732 122.91 47.824 120.852 47.824H119.732V40.376H120.852ZM127.434 49H131.102C133.006 49 134.154 47.894 134.154 46.088C134.154 44.912 133.51 44.03 132.544 43.638C133.202 43.288 133.664 42.56 133.664 41.72C133.664 40.11 132.628 39.2 130.878 39.2H127.434V49ZM130.92 44.366C132.222 44.366 132.88 44.94 132.88 46.088C132.88 47.25 132.222 47.824 130.92 47.824H128.666V44.366H130.92ZM130.85 40.376C131.788 40.376 132.39 40.852 132.39 41.79C132.39 42.7 131.802 43.19 130.85 43.19H128.666V40.376H130.85Z" fill="#212121"/>
<path d="M137.676 50.498L139.72 47.46H137.998L136.654 50.498H137.676ZM137.942 43.946C138.376 44.38 139.104 44.38 139.538 43.946C139.972 43.512 139.972 42.784 139.538 42.35C139.104 41.916 138.376 41.916 137.942 42.35C137.508 42.784 137.508 43.512 137.942 43.946Z" fill="#212121" fill-opacity="0.5"/>
<path d="M152.44 46.76L148.338 39.2H146.994V49H148.226V41.44L152.328 49H153.672V39.2H152.44V46.76ZM156.502 48.048C157.132 48.762 157.972 49.112 159.022 49.112C160.072 49.112 160.912 48.762 161.542 48.048C162.172 47.334 162.494 46.48 162.494 45.472C162.494 44.464 162.172 43.61 161.542 42.896C160.912 42.182 160.072 41.832 159.022 41.832C157.972 41.832 157.132 42.182 156.502 42.896C155.872 43.61 155.55 44.464 155.55 45.472C155.55 46.48 155.872 47.334 156.502 48.048ZM157.37 43.652C157.776 43.148 158.336 42.896 159.022 42.896C159.708 42.896 160.268 43.148 160.674 43.652C161.08 44.156 161.29 44.758 161.29 45.472C161.29 46.186 161.08 46.788 160.674 47.292C160.268 47.796 159.708 48.048 159.022 48.048C158.336 48.048 157.776 47.796 157.37 47.292C156.964 46.788 156.754 46.186 156.754 45.472C156.754 44.758 156.964 44.156 157.37 43.652ZM167.577 41.832C165.547 41.832 164.343 43.274 164.343 45.472C164.343 47.67 165.547 49.112 167.577 49.112C168.487 49.112 169.299 48.664 169.733 48.062V49H170.909V39.088H169.733V42.84C169.299 42.266 168.515 41.832 167.577 41.832ZM166.121 43.61C166.499 43.134 167.031 42.896 167.689 42.896C168.347 42.896 168.879 43.134 169.257 43.61C169.635 44.086 169.831 44.702 169.831 45.472C169.831 46.242 169.635 46.858 169.257 47.334C168.879 47.81 168.347 48.048 167.689 48.048C167.031 48.048 166.499 47.81 166.121 47.334C165.743 46.858 165.547 46.242 165.547 45.472C165.547 44.702 165.743 44.086 166.121 43.61ZM179.829 45.234C179.829 44.268 179.535 43.456 178.947 42.812C178.359 42.154 177.533 41.832 176.483 41.832C175.461 41.832 174.635 42.182 174.019 42.882C173.417 43.582 173.109 44.45 173.109 45.472C173.109 46.522 173.417 47.39 174.033 48.076C174.663 48.762 175.475 49.112 176.483 49.112C177.939 49.112 179.003 48.454 179.689 47.138L178.751 46.648C178.247 47.586 177.491 48.048 176.483 48.048C175.237 48.048 174.383 47.124 174.313 45.724H179.829V45.234ZM176.483 42.896C177.617 42.896 178.373 43.54 178.583 44.66H174.397C174.635 43.554 175.377 42.896 176.483 42.896ZM186.579 45.892C186.579 47.278 185.907 47.936 184.801 47.936C183.849 47.936 183.219 47.292 182.995 46.186L181.749 46.452C181.875 47.222 182.197 47.852 182.729 48.356C183.261 48.86 183.947 49.112 184.801 49.112C185.683 49.112 186.411 48.832 186.971 48.286C187.531 47.726 187.811 46.914 187.811 45.864V39.2H186.579V45.892ZM196.912 41.188C196.464 39.998 195.428 39.088 193.846 39.088C192.908 39.088 192.18 39.34 191.648 39.858C191.116 40.362 190.85 41.02 190.85 41.818C190.906 42.994 191.312 43.61 192.096 44.016C192.656 44.296 192.992 44.394 193.678 44.562C194.392 44.73 194.644 44.814 195.078 44.996C195.302 45.08 195.456 45.164 195.554 45.262C195.736 45.444 195.904 45.752 195.904 46.158C195.904 47.32 195.12 47.936 193.888 47.936C192.6 47.936 191.76 47.208 191.382 45.752L190.234 46.2C190.612 48.09 191.998 49.112 193.888 49.112C195.862 49.112 197.136 48.062 197.136 45.99C197.094 44.968 196.73 44.408 195.96 44.016C195.442 43.736 195.064 43.624 194.35 43.442C193.552 43.232 192.978 43.022 192.614 42.812C192.264 42.602 192.082 42.252 192.082 41.776C192.082 40.824 192.768 40.264 193.846 40.264C194.742 40.264 195.4 40.754 195.834 41.734L196.912 41.188Z" fill="#212121"/>
<path d="M201.676 50.498L203.72 47.46H201.998L200.654 50.498H201.676ZM201.942 43.946C202.376 44.38 203.104 44.38 203.538 43.946C203.972 43.512 203.972 42.784 203.538 42.35C203.104 41.916 202.376 41.916 201.942 42.35C201.508 42.784 201.508 43.512 201.942 43.946Z" fill="#212121" fill-opacity="0.5"/>
<path d="M186.134 91V86.058H182.662V87.234H184.86C184.734 89.04 183.992 89.936 182.662 89.936C180.926 89.936 179.89 88.69 179.89 86.1C179.89 83.51 180.926 82.264 182.662 82.264C183.88 82.264 184.566 82.964 185.014 84.42L186.176 84.07C185.728 82.236 184.51 81.088 182.662 81.088C181.486 81.088 180.52 81.522 179.75 82.376C178.994 83.23 178.616 84.476 178.616 86.1C178.616 87.71 178.994 88.956 179.75 89.824C180.506 90.678 181.444 91.112 182.578 91.112C183.656 91.112 184.608 90.622 185.042 89.684L185.112 91H186.134ZM190.644 84.98V89.964H188.208V91H194.424V89.964H191.82V83.944H188.488V84.98H190.644ZM190.182 82.068C190.182 82.586 190.602 83.02 191.148 83.02C191.694 83.02 192.114 82.614 192.114 82.068C192.114 81.522 191.694 81.088 191.148 81.088C190.602 81.088 190.182 81.522 190.182 82.068ZM198.163 85.008V88.662C198.163 90.286 199.003 91.112 200.557 91.112C201.397 91.112 202.125 90.804 202.727 90.202L202.293 89.208C201.761 89.768 201.187 90.048 200.557 90.048C199.745 90.048 199.339 89.572 199.339 88.62V85.008H202.783V83.944H199.339V81.088L198.163 81.83V83.944H196.287V85.008H198.163Z" fill="#212121"/>
<path d="M207.676 92.498L209.72 89.46H207.998L206.654 92.498H207.676ZM207.942 85.946C208.376 86.38 209.104 86.38 209.538 85.946C209.972 85.512 209.972 84.784 209.538 84.35C209.104 83.916 208.376 83.916 207.942 84.35C207.508 84.784 207.508 85.512 207.942 85.946Z" fill="#212121" fill-opacity="0.5"/>
<path d="M24.316 70L21.39 65.296C22.748 65.016 23.434 64.176 23.434 62.79C23.434 61.096 22.342 60.2 20.55 60.2H17.12V70H18.352V65.38H19.99L22.86 70H24.316ZM20.578 61.376C21.628 61.376 22.16 61.852 22.16 62.79C22.16 63.728 21.628 64.204 20.578 64.204H18.352V61.376H20.578ZM32.4656 66.234C32.4656 65.268 32.1716 64.456 31.5836 63.812C30.9956 63.154 30.1696 62.832 29.1196 62.832C28.0976 62.832 27.2716 63.182 26.6556 63.882C26.0536 64.582 25.7456 65.45 25.7456 66.472C25.7456 67.522 26.0536 68.39 26.6696 69.076C27.2996 69.762 28.1116 70.112 29.1196 70.112C30.5756 70.112 31.6396 69.454 32.3256 68.138L31.3876 67.648C30.8836 68.586 30.1276 69.048 29.1196 69.048C27.8736 69.048 27.0196 68.124 26.9496 66.724H32.4656V66.234ZM29.1196 63.896C30.2536 63.896 31.0096 64.54 31.2196 65.66H27.0336C27.2716 64.554 28.0136 63.896 29.1196 63.896ZM36.1213 67.97C36.1213 67.172 36.8073 66.668 37.9973 66.668H39.5373V66.892C39.5373 67.606 39.2993 68.152 38.8233 68.516C38.3613 68.866 37.8433 69.048 37.2833 69.048C36.5693 69.048 36.1213 68.642 36.1213 67.97ZM40.7133 65.548C40.7133 63.686 39.6493 62.832 37.9133 62.832C36.6113 62.832 35.5333 63.602 35.2113 64.82L36.2473 65.1C36.4713 64.386 37.1153 63.896 37.9133 63.896C38.8653 63.896 39.5373 64.33 39.5373 65.352V65.66H38.1093C36.1073 65.66 34.9173 66.444 34.9173 67.97C34.9173 69.356 35.8553 70.112 37.1013 70.112C38.1513 70.112 39.1453 69.664 39.5933 69.006L39.7613 70H40.7133V65.548ZM48.6249 67.746C48.2469 68.614 47.6029 69.048 46.6649 69.048C45.3069 69.048 44.4949 67.984 44.4949 66.472C44.4949 64.96 45.3069 63.896 46.6649 63.896C47.6029 63.896 48.2469 64.33 48.6249 65.198L49.6469 64.778C49.0729 63.476 48.0789 62.832 46.6649 62.832C45.6289 62.832 44.8029 63.182 44.2009 63.896C43.5989 64.61 43.2909 65.464 43.2909 66.472C43.2909 67.48 43.5989 68.334 44.2009 69.048C44.8029 69.762 45.6289 70.112 46.6649 70.112C48.0789 70.112 49.0729 69.468 49.6469 68.166L48.6249 67.746ZM53.5266 64.008V67.662C53.5266 69.286 54.3666 70.112 55.9206 70.112C56.7606 70.112 57.4886 69.804 58.0906 69.202L57.6566 68.208C57.1246 68.768 56.5506 69.048 55.9206 69.048C55.1086 69.048 54.7026 68.572 54.7026 67.62V64.008H58.1466V62.944H54.7026V60.088L53.5266 60.83V62.944H51.6506V64.008H53.5266Z" fill="#212121"/>
<path d="M62.6759 71.498L64.7199 68.46H62.9979L61.6539 71.498H62.6759ZM62.9419 64.946C63.3759 65.38 64.1039 65.38 64.5379 64.946C64.9719 64.512 64.9719 63.784 64.5379 63.35C64.1039 62.916 63.3759 62.916 62.9419 63.35C62.5079 63.784 62.5079 64.512 62.9419 64.946Z" fill="#212121" fill-opacity="0.5"/>
<path d="M79.316 70L76.39 65.296C77.748 65.016 78.434 64.176 78.434 62.79C78.434 61.096 77.342 60.2 75.55 60.2H72.12V70H73.352V65.38H74.99L77.86 70H79.316ZM75.578 61.376C76.628 61.376 77.16 61.852 77.16 62.79C77.16 63.728 76.628 64.204 75.578 64.204H73.352V61.376H75.578ZM87.4656 66.234C87.4656 65.268 87.1716 64.456 86.5836 63.812C85.9956 63.154 85.1696 62.832 84.1196 62.832C83.0976 62.832 82.2716 63.182 81.6556 63.882C81.0536 64.582 80.7456 65.45 80.7456 66.472C80.7456 67.522 81.0536 68.39 81.6696 69.076C82.2996 69.762 83.1116 70.112 84.1196 70.112C85.5756 70.112 86.6396 69.454 87.3256 68.138L86.3876 67.648C85.8836 68.586 85.1276 69.048 84.1196 69.048C82.8736 69.048 82.0196 68.124 81.9496 66.724H87.4656V66.234ZM84.1196 63.896C85.2536 63.896 86.0096 64.54 86.2196 65.66H82.0336C82.2716 64.554 83.0136 63.896 84.1196 63.896ZM91.1213 67.97C91.1213 67.172 91.8073 66.668 92.9973 66.668H94.5373V66.892C94.5373 67.606 94.2993 68.152 93.8233 68.516C93.3613 68.866 92.8433 69.048 92.2833 69.048C91.5693 69.048 91.1213 68.642 91.1213 67.97ZM95.7133 65.548C95.7133 63.686 94.6493 62.832 92.9133 62.832C91.6113 62.832 90.5333 63.602 90.2113 64.82L91.2473 65.1C91.4713 64.386 92.1153 63.896 92.9133 63.896C93.8653 63.896 94.5373 64.33 94.5373 65.352V65.66H93.1093C91.1073 65.66 89.9173 66.444 89.9173 67.97C89.9173 69.356 90.8553 70.112 92.1013 70.112C93.1513 70.112 94.1453 69.664 94.5933 69.006L94.7613 70H95.7133V65.548ZM103.625 67.746C103.247 68.614 102.603 69.048 101.665 69.048C100.307 69.048 99.4949 67.984 99.4949 66.472C99.4949 64.96 100.307 63.896 101.665 63.896C102.603 63.896 103.247 64.33 103.625 65.198L104.647 64.778C104.073 63.476 103.079 62.832 101.665 62.832C100.629 62.832 99.8029 63.182 99.2009 63.896C98.5989 64.61 98.2909 65.464 98.2909 66.472C98.2909 67.48 98.5989 68.334 99.2009 69.048C99.8029 69.762 100.629 70.112 101.665 70.112C103.079 70.112 104.073 69.468 104.647 68.166L103.625 67.746ZM108.527 64.008V67.662C108.527 69.286 109.367 70.112 110.921 70.112C111.761 70.112 112.489 69.804 113.091 69.202L112.657 68.208C112.125 68.768 111.551 69.048 110.921 69.048C110.109 69.048 109.703 68.572 109.703 67.62V64.008H113.147V62.944H109.703V60.088L108.527 60.83V62.944H106.651V64.008H108.527ZM129.53 67.76L125.428 60.2H124.084V70H125.316V62.44L129.418 70H130.762V60.2H129.53V67.76ZM134.529 67.97C134.529 67.172 135.215 66.668 136.405 66.668H137.945V66.892C137.945 67.606 137.707 68.152 137.231 68.516C136.769 68.866 136.251 69.048 135.691 69.048C134.977 69.048 134.529 68.642 134.529 67.97ZM139.121 65.548C139.121 63.686 138.057 62.832 136.321 62.832C135.019 62.832 133.941 63.602 133.619 64.82L134.655 65.1C134.879 64.386 135.523 63.896 136.321 63.896C137.273 63.896 137.945 64.33 137.945 65.352V65.66H136.517C134.515 65.66 133.325 66.444 133.325 67.97C133.325 69.356 134.263 70.112 135.509 70.112C136.559 70.112 137.553 69.664 138.001 69.006L138.169 70H139.121V65.548ZM143.253 64.008V67.662C143.253 69.286 144.093 70.112 145.647 70.112C146.487 70.112 147.215 69.804 147.817 69.202L147.383 68.208C146.851 68.768 146.277 69.048 145.647 69.048C144.835 69.048 144.429 68.572 144.429 67.62V64.008H147.873V62.944H144.429V60.088L143.253 60.83V62.944H141.377V64.008H143.253ZM153.097 63.98V68.964H150.661V70H156.877V68.964H154.273V62.944H150.941V63.98H153.097ZM152.635 61.068C152.635 61.586 153.055 62.02 153.601 62.02C154.147 62.02 154.567 61.614 154.567 61.068C154.567 60.522 154.147 60.088 153.601 60.088C153.055 60.088 152.635 60.522 152.635 61.068ZM162.156 68.6L159.888 62.944H158.614L161.568 70H162.744L165.698 62.944H164.424L162.156 68.6ZM174.282 66.234C174.282 65.268 173.988 64.456 173.4 63.812C172.812 63.154 171.986 62.832 170.936 62.832C169.914 62.832 169.088 63.182 168.472 63.882C167.87 64.582 167.562 65.45 167.562 66.472C167.562 67.522 167.87 68.39 168.486 69.076C169.116 69.762 169.928 70.112 170.936 70.112C172.392 70.112 173.456 69.454 174.142 68.138L173.204 67.648C172.7 68.586 171.944 69.048 170.936 69.048C169.69 69.048 168.836 68.124 168.766 66.724H174.282V66.234ZM170.936 63.896C172.07 63.896 172.826 64.54 173.036 65.66H168.85C169.088 64.554 169.83 63.896 170.936 63.896Z" fill="#212121"/>
<path d="M178.676 71.498L180.72 68.46H178.998L177.654 71.498H178.676ZM178.942 64.946C179.376 65.38 180.104 65.38 180.538 64.946C180.972 64.512 180.972 63.784 180.538 63.35C180.104 62.916 179.376 62.916 178.942 63.35C178.508 63.784 178.508 64.512 178.942 64.946Z" fill="#212121" fill-opacity="0.5"/>
<path d="M169.316 133L166.39 128.296C167.748 128.016 168.434 127.176 168.434 125.79C168.434 124.096 167.342 123.2 165.55 123.2H162.12V133H163.352V128.38H164.99L167.86 133H169.316ZM165.578 124.376C166.628 124.376 167.16 124.852 167.16 125.79C167.16 126.728 166.628 127.204 165.578 127.204H163.352V124.376H165.578ZM177.466 129.234C177.466 128.268 177.172 127.456 176.584 126.812C175.996 126.154 175.17 125.832 174.12 125.832C173.098 125.832 172.272 126.182 171.656 126.882C171.054 127.582 170.746 128.45 170.746 129.472C170.746 130.522 171.054 131.39 171.67 132.076C172.3 132.762 173.112 133.112 174.12 133.112C175.576 133.112 176.64 132.454 177.326 131.138L176.388 130.648C175.884 131.586 175.128 132.048 174.12 132.048C172.874 132.048 172.02 131.124 171.95 129.724H177.466V129.234ZM174.12 126.896C175.254 126.896 176.01 127.54 176.22 128.66H172.034C172.272 127.554 173.014 126.896 174.12 126.896ZM182.577 125.832C180.547 125.832 179.343 127.274 179.343 129.472C179.343 131.67 180.547 133.112 182.577 133.112C183.487 133.112 184.299 132.664 184.733 132.062V133H185.909V123.088H184.733V126.84C184.299 126.266 183.515 125.832 182.577 125.832ZM181.121 127.61C181.499 127.134 182.031 126.896 182.689 126.896C183.347 126.896 183.879 127.134 184.257 127.61C184.635 128.086 184.831 128.702 184.831 129.472C184.831 130.242 184.635 130.858 184.257 131.334C183.879 131.81 183.347 132.048 182.689 132.048C182.031 132.048 181.499 131.81 181.121 131.334C180.743 130.858 180.547 130.242 180.547 129.472C180.547 128.702 180.743 128.086 181.121 127.61ZM188.487 130.858C188.487 132.258 189.201 133.112 190.643 133.112C191.609 133.112 192.519 132.538 193.037 131.698V133H194.213V125.944H193.037V128.786C193.037 129.78 192.841 130.564 192.435 131.166C192.029 131.754 191.539 132.048 190.965 132.048C190.097 132.048 189.663 131.572 189.663 130.606V125.944H188.487V130.858ZM200.067 128.282L198.513 125.944H197.127L199.423 129.262L196.861 133H198.191L200.067 130.228L201.943 133H203.273L200.711 129.262L203.007 125.944H201.621L200.067 128.282Z" fill="#212121"/>
<path d="M207.676 134.498L209.72 131.46H207.998L206.654 134.498H207.676ZM207.942 127.946C208.376 128.38 209.104 128.38 209.538 127.946C209.972 127.512 209.972 126.784 209.538 126.35C209.104 125.916 208.376 125.916 207.942 126.35C207.508 126.784 207.508 127.512 207.942 127.946Z" fill="#212121" fill-opacity="0.5"/>
<path d="M16.938 91H18.17V83.818L19.878 88.186H20.802L22.51 83.818V91H23.742V81.2H22.426L20.34 86.632L18.254 81.2H16.938V91ZM29.3716 89.11L27.0056 83.944H25.6896L28.7416 90.524L27.3696 93.856H28.5456L32.7316 83.944H31.4576L29.3716 89.11ZM40.8673 83.188C40.4193 81.998 39.3833 81.088 37.8013 81.088C36.8633 81.088 36.1353 81.34 35.6033 81.858C35.0713 82.362 34.8053 83.02 34.8053 83.818C34.8613 84.994 35.2673 85.61 36.0513 86.016C36.6113 86.296 36.9473 86.394 37.6333 86.562C38.3473 86.73 38.5993 86.814 39.0333 86.996C39.2573 87.08 39.4113 87.164 39.5093 87.262C39.6913 87.444 39.8593 87.752 39.8593 88.158C39.8593 89.32 39.0753 89.936 37.8433 89.936C36.5553 89.936 35.7153 89.208 35.3373 87.752L34.1893 88.2C34.5673 90.09 35.9533 91.112 37.8433 91.112C39.8173 91.112 41.0913 90.062 41.0913 87.99C41.0493 86.968 40.6853 86.408 39.9153 86.016C39.3973 85.736 39.0193 85.624 38.3053 85.442C37.5073 85.232 36.9333 85.022 36.5693 84.812C36.2193 84.602 36.0373 84.252 36.0373 83.776C36.0373 82.824 36.7233 82.264 37.8013 82.264C38.6973 82.264 39.3553 82.754 39.7893 83.734L40.8673 83.188ZM50.1929 86.1C50.1929 84.49 49.8429 83.244 49.1289 82.39C48.4149 81.522 47.5049 81.088 46.3849 81.088C45.2649 81.088 44.3549 81.522 43.6409 82.39C42.9269 83.244 42.5769 84.49 42.5769 86.1C42.5769 87.71 42.9269 88.956 43.6409 89.824C44.3549 90.678 45.2649 91.112 46.3849 91.112C47.2809 91.112 48.0509 90.832 48.6809 90.272L49.5209 91.112L50.3749 90.23L49.4649 89.32C49.9549 88.48 50.1929 87.402 50.1929 86.1ZM47.8409 89.432C47.4489 89.768 46.9589 89.936 46.3849 89.936C44.8309 89.936 43.8509 88.732 43.8509 86.1C43.8509 84.784 44.0749 83.818 44.5369 83.202C44.9989 82.572 45.6149 82.264 46.3849 82.264C47.1549 82.264 47.7709 82.572 48.2329 83.202C48.6949 83.818 48.9189 84.784 48.9189 86.1C48.9189 87.01 48.7929 87.766 48.5549 88.396L47.6869 87.514L46.8329 88.396L47.8409 89.432ZM58.8186 89.824H53.8206V81.2H52.5886V91H58.8186V89.824Z" fill="#212121"/>
<path d="M62.6759 92.498L64.7199 89.46H62.9979L61.6539 92.498H62.6759ZM62.9419 85.946C63.3759 86.38 64.1039 86.38 64.5379 85.946C64.9719 85.512 64.9719 84.784 64.5379 84.35C64.1039 83.916 63.3759 83.916 62.9419 84.35C62.5079 84.784 62.5079 85.512 62.9419 85.946Z" fill="#212121" fill-opacity="0.5"/>
<path d="M78.322 89.936H75.956V82.264H78.322V81.2H72.358V82.264H74.724V89.936H72.358V91H78.322V89.936ZM82.4956 88.34C82.4956 90.09 83.5176 91.112 85.1556 91.112C86.6256 91.112 87.6196 90.23 87.8576 88.55L86.7936 88.34C86.6116 89.474 86.0656 90.048 85.1556 90.048C84.1616 90.048 83.6716 89.474 83.6716 88.34V81.2H80.5496V82.264H82.4956V88.34ZM91.1773 88.34C91.1773 90.09 92.1993 91.112 93.8373 91.112C95.3073 91.112 96.3013 90.23 96.5393 88.55L95.4753 88.34C95.2933 89.474 94.7473 90.048 93.8373 90.048C92.8433 90.048 92.3533 89.474 92.3533 88.34V81.2H89.2313V82.264H91.1773V88.34ZM98.4869 88.858C98.4869 90.258 99.2009 91.112 100.643 91.112C101.609 91.112 102.519 90.538 103.037 89.698V91H104.213V83.944H103.037V86.786C103.037 87.78 102.841 88.564 102.435 89.166C102.029 89.754 101.539 90.048 100.965 90.048C100.097 90.048 99.6629 89.572 99.6629 88.606V83.944H98.4869V88.858ZM110.039 83.832C109.367 83.832 108.793 84.014 108.331 84.392C107.869 84.77 107.631 85.26 107.631 85.876C107.631 87.122 108.471 87.626 109.913 87.92C111.201 88.2 111.733 88.396 111.733 88.956C111.733 89.67 111.089 90.048 110.235 90.048C109.283 90.048 108.611 89.53 108.289 88.648L107.169 89.068C107.603 90.37 108.779 91.112 110.235 91.112C111.005 91.112 111.649 90.916 112.167 90.51C112.685 90.104 112.951 89.544 112.951 88.844C112.951 88.102 112.517 87.626 111.859 87.346C111.397 87.136 111.019 87.052 110.417 86.926C109.297 86.702 108.779 86.408 108.779 85.834C108.779 85.204 109.325 84.896 109.997 84.896C110.711 84.896 111.285 85.274 111.691 86.016L112.615 85.358C112.055 84.336 111.201 83.832 110.039 83.832ZM117.208 85.008V88.662C117.208 90.286 118.048 91.112 119.602 91.112C120.442 91.112 121.17 90.804 121.772 90.202L121.338 89.208C120.806 89.768 120.232 90.048 119.602 90.048C118.79 90.048 118.384 89.572 118.384 88.62V85.008H121.828V83.944H118.384V81.088L117.208 81.83V83.944H115.332V85.008H117.208ZM130.916 86.184C130.846 84.672 129.992 83.832 128.592 83.832C127.458 83.832 126.59 84.308 125.988 85.246V83.944H124.812V91H125.988V88.452C125.988 87.318 126.226 86.45 126.688 85.834C127.15 85.204 127.724 84.896 128.382 84.896C129.18 84.896 129.642 85.33 129.74 86.184H130.916ZM134.529 88.97C134.529 88.172 135.215 87.668 136.405 87.668H137.945V87.892C137.945 88.606 137.707 89.152 137.231 89.516C136.769 89.866 136.251 90.048 135.691 90.048C134.977 90.048 134.529 89.642 134.529 88.97ZM139.121 86.548C139.121 84.686 138.057 83.832 136.321 83.832C135.019 83.832 133.941 84.602 133.619 85.82L134.655 86.1C134.879 85.386 135.523 84.896 136.321 84.896C137.273 84.896 137.945 85.33 137.945 86.352V86.66H136.517C134.515 86.66 133.325 87.444 133.325 88.97C133.325 90.356 134.263 91.112 135.509 91.112C136.559 91.112 137.553 90.664 138.001 90.006L138.169 91H139.121V86.548ZM143.253 85.008V88.662C143.253 90.286 144.093 91.112 145.647 91.112C146.487 91.112 147.215 90.804 147.817 90.202L147.383 89.208C146.851 89.768 146.277 90.048 145.647 90.048C144.835 90.048 144.429 89.572 144.429 88.62V85.008H147.873V83.944H144.429V81.088L143.253 81.83V83.944H141.377V85.008H143.253ZM150.955 90.048C151.585 90.762 152.425 91.112 153.475 91.112C154.525 91.112 155.365 90.762 155.995 90.048C156.625 89.334 156.947 88.48 156.947 87.472C156.947 86.464 156.625 85.61 155.995 84.896C155.365 84.182 154.525 83.832 153.475 83.832C152.425 83.832 151.585 84.182 150.955 84.896C150.325 85.61 150.003 86.464 150.003 87.472C150.003 88.48 150.325 89.334 150.955 90.048ZM151.823 85.652C152.229 85.148 152.789 84.896 153.475 84.896C154.161 84.896 154.721 85.148 155.127 85.652C155.533 86.156 155.743 86.758 155.743 87.472C155.743 88.186 155.533 88.788 155.127 89.292C154.721 89.796 154.161 90.048 153.475 90.048C152.789 90.048 152.229 89.796 151.823 89.292C151.417 88.788 151.207 88.186 151.207 87.472C151.207 86.758 151.417 86.156 151.823 85.652ZM165.642 86.184C165.572 84.672 164.718 83.832 163.318 83.832C162.184 83.832 161.316 84.308 160.714 85.246V83.944H159.538V91H160.714V88.452C160.714 87.318 160.952 86.45 161.414 85.834C161.876 85.204 162.45 84.896 163.108 84.896C163.906 84.896 164.368 85.33 164.466 86.184H165.642Z" fill="#212121"/>
<path d="M169.676 92.498L171.72 89.46H169.998L168.654 92.498H169.676ZM169.942 85.946C170.376 86.38 171.104 86.38 171.538 85.946C171.972 85.512 171.972 84.784 171.538 84.35C171.104 83.916 170.376 83.916 169.942 84.35C169.508 84.784 169.508 85.512 169.942 85.946Z" fill="#212121" fill-opacity="0.5"/>
<path d="M23.504 104.188C23.056 102.998 22.02 102.088 20.438 102.088C19.5 102.088 18.772 102.34 18.24 102.858C17.708 103.362 17.442 104.02 17.442 104.818C17.498 105.994 17.904 106.61 18.688 107.016C19.248 107.296 19.584 107.394 20.27 107.562C20.984 107.73 21.236 107.814 21.67 107.996C21.894 108.08 22.048 108.164 22.146 108.262C22.328 108.444 22.496 108.752 22.496 109.158C22.496 110.32 21.712 110.936 20.48 110.936C19.192 110.936 18.352 110.208 17.974 108.752L16.826 109.2C17.204 111.09 18.59 112.112 20.48 112.112C22.454 112.112 23.728 111.062 23.728 108.99C23.686 107.968 23.322 107.408 22.552 107.016C22.034 106.736 21.656 106.624 20.942 106.442C20.144 106.232 19.57 106.022 19.206 105.812C18.856 105.602 18.674 105.252 18.674 104.776C18.674 103.824 19.36 103.264 20.438 103.264C21.334 103.264 21.992 103.754 22.426 104.734L23.504 104.188ZM27.4816 106.008V109.662C27.4816 111.286 28.3216 112.112 29.8756 112.112C30.7156 112.112 31.4436 111.804 32.0456 111.202L31.6116 110.208C31.0796 110.768 30.5056 111.048 29.8756 111.048C29.0636 111.048 28.6576 110.572 28.6576 109.62V106.008H32.1016V104.944H28.6576V102.088L27.4816 102.83V104.944H25.6056V106.008H27.4816ZM38.0533 110.11L35.6873 104.944H34.3713L37.4233 111.524L36.0513 114.856H37.2273L41.4133 104.944H40.1393L38.0533 110.11ZM44.8589 109.34C44.8589 111.09 45.8809 112.112 47.5189 112.112C48.9889 112.112 49.9829 111.23 50.2209 109.55L49.1569 109.34C48.9749 110.474 48.4289 111.048 47.5189 111.048C46.5249 111.048 46.0349 110.474 46.0349 109.34V102.2H42.9129V103.264H44.8589V109.34ZM58.5106 108.234C58.5106 107.268 58.2166 106.456 57.6286 105.812C57.0406 105.154 56.2146 104.832 55.1646 104.832C54.1426 104.832 53.3166 105.182 52.7006 105.882C52.0986 106.582 51.7906 107.45 51.7906 108.472C51.7906 109.522 52.0986 110.39 52.7146 111.076C53.3446 111.762 54.1566 112.112 55.1646 112.112C56.6206 112.112 57.6846 111.454 58.3706 110.138L57.4326 109.648C56.9286 110.586 56.1726 111.048 55.1646 111.048C53.9186 111.048 53.0646 110.124 52.9946 108.724H58.5106V108.234ZM55.1646 105.896C56.2986 105.896 57.0546 106.54 57.2646 107.66H53.0786C53.3166 106.554 54.0586 105.896 55.1646 105.896ZM63.6222 104.832C61.5922 104.832 60.3882 106.274 60.3882 108.472C60.3882 110.67 61.5922 112.112 63.6222 112.112C64.5322 112.112 65.3442 111.664 65.7782 111.062V112H66.9542V102.088H65.7782V105.84C65.3442 105.266 64.5602 104.832 63.6222 104.832ZM62.1662 106.61C62.5442 106.134 63.0762 105.896 63.7342 105.896C64.3922 105.896 64.9242 106.134 65.3022 106.61C65.6802 107.086 65.8762 107.702 65.8762 108.472C65.8762 109.242 65.6802 109.858 65.3022 110.334C64.9242 110.81 64.3922 111.048 63.7342 111.048C63.0762 111.048 62.5442 110.81 62.1662 110.334C61.7882 109.858 61.5922 109.242 61.5922 108.472C61.5922 107.702 61.7882 107.086 62.1662 106.61ZM83.8555 108.78C83.4075 110.236 82.7215 110.936 81.5035 110.936C79.7675 110.936 78.7315 109.69 78.7315 107.1C78.7315 104.51 79.7675 103.264 81.5035 103.264C82.7215 103.264 83.4075 103.964 83.8555 105.42L85.0175 105.07C84.5695 103.264 83.3375 102.088 81.5035 102.088C80.3275 102.088 79.3615 102.522 78.5915 103.376C77.8355 104.23 77.4575 105.476 77.4575 107.1C77.4575 108.724 77.8355 109.97 78.5915 110.824C79.3615 111.678 80.3275 112.112 81.5035 112.112C83.3375 112.112 84.5695 110.936 85.0175 109.13L83.8555 108.78ZM87.2731 111.048C87.9031 111.762 88.7431 112.112 89.7931 112.112C90.8431 112.112 91.6831 111.762 92.3131 111.048C92.9431 110.334 93.2651 109.48 93.2651 108.472C93.2651 107.464 92.9431 106.61 92.3131 105.896C91.6831 105.182 90.8431 104.832 89.7931 104.832C88.7431 104.832 87.9031 105.182 87.2731 105.896C86.6431 106.61 86.3211 107.464 86.3211 108.472C86.3211 109.48 86.6431 110.334 87.2731 111.048ZM88.1411 106.652C88.5471 106.148 89.1071 105.896 89.7931 105.896C90.4791 105.896 91.0391 106.148 91.4451 106.652C91.8511 107.156 92.0611 107.758 92.0611 108.472C92.0611 109.186 91.8511 109.788 91.4451 110.292C91.0391 110.796 90.4791 111.048 89.7931 111.048C89.1071 111.048 88.5471 110.796 88.1411 110.292C87.7351 109.788 87.5251 109.186 87.5251 108.472C87.5251 107.758 87.7351 107.156 88.1411 106.652ZM102.367 106.736C102.367 105.448 101.765 104.832 100.827 104.832C100.099 104.832 99.4688 105.294 99.0908 105.98C98.8808 105.21 98.3908 104.832 97.6348 104.832C96.9488 104.832 96.4028 105.168 95.9828 105.84V104.944H94.8068V112H95.9828V108.682C95.9828 106.82 96.5008 105.91 97.2288 105.91C97.7748 105.91 97.9988 106.218 97.9988 106.988V112H99.1748V108.682C99.1748 106.82 99.6928 105.91 100.421 105.91C100.967 105.91 101.191 106.218 101.191 106.988V112H102.367V106.736ZM107.604 112.112C109.634 112.112 110.838 110.67 110.838 108.472C110.838 106.274 109.634 104.832 107.604 104.832C106.694 104.832 105.882 105.28 105.448 105.882V104.944H104.272V114.856H105.448V111.104C105.882 111.678 106.666 112.112 107.604 112.112ZM109.06 110.334C108.682 110.81 108.15 111.048 107.492 111.048C106.834 111.048 106.302 110.81 105.924 110.334C105.546 109.858 105.35 109.242 105.35 108.472C105.35 107.702 105.546 107.086 105.924 106.61C106.302 106.134 106.834 105.896 107.492 105.896C108.15 105.896 108.682 106.134 109.06 106.61C109.438 107.086 109.634 107.702 109.634 108.472C109.634 109.242 109.438 109.858 109.06 110.334ZM113.318 111.048C113.948 111.762 114.788 112.112 115.838 112.112C116.888 112.112 117.728 111.762 118.358 111.048C118.988 110.334 119.31 109.48 119.31 108.472C119.31 107.464 118.988 106.61 118.358 105.896C117.728 105.182 116.888 104.832 115.838 104.832C114.788 104.832 113.948 105.182 113.318 105.896C112.688 106.61 112.366 107.464 112.366 108.472C112.366 109.48 112.688 110.334 113.318 111.048ZM114.186 106.652C114.592 106.148 115.152 105.896 115.838 105.896C116.524 105.896 117.084 106.148 117.49 106.652C117.896 107.156 118.106 107.758 118.106 108.472C118.106 109.186 117.896 109.788 117.49 110.292C117.084 110.796 116.524 111.048 115.838 111.048C115.152 111.048 114.592 110.796 114.186 110.292C113.78 109.788 113.57 109.186 113.57 108.472C113.57 107.758 113.78 107.156 114.186 106.652ZM127.488 107.086C127.488 105.686 126.774 104.832 125.332 104.832C124.366 104.832 123.456 105.406 122.938 106.246V104.944H121.762V112H122.938V109.158C122.938 108.164 123.134 107.38 123.54 106.792C123.946 106.19 124.436 105.896 125.01 105.896C125.878 105.896 126.312 106.372 126.312 107.338V112H127.488V107.086ZM136.645 108.234C136.645 107.268 136.351 106.456 135.763 105.812C135.175 105.154 134.349 104.832 133.299 104.832C132.277 104.832 131.451 105.182 130.835 105.882C130.233 106.582 129.925 107.45 129.925 108.472C129.925 109.522 130.233 110.39 130.849 111.076C131.479 111.762 132.291 112.112 133.299 112.112C134.755 112.112 135.819 111.454 136.505 110.138L135.567 109.648C135.063 110.586 134.307 111.048 133.299 111.048C132.053 111.048 131.199 110.124 131.129 108.724H136.645V108.234ZM133.299 105.896C134.433 105.896 135.189 106.54 135.399 107.66H131.213C131.451 106.554 132.193 105.896 133.299 105.896ZM144.851 107.086C144.851 105.686 144.137 104.832 142.695 104.832C141.729 104.832 140.819 105.406 140.301 106.246V104.944H139.125V112H140.301V109.158C140.301 108.164 140.497 107.38 140.903 106.792C141.309 106.19 141.799 105.896 142.373 105.896C143.241 105.896 143.675 106.372 143.675 107.338V112H144.851V107.086ZM149.025 106.008V109.662C149.025 111.286 149.865 112.112 151.419 112.112C152.259 112.112 152.987 111.804 153.589 111.202L153.155 110.208C152.623 110.768 152.049 111.048 151.419 111.048C150.607 111.048 150.201 110.572 150.201 109.62V106.008H153.645V104.944H150.201V102.088L149.025 102.83V104.944H147.149V106.008H149.025ZM159.218 104.832C158.546 104.832 157.972 105.014 157.51 105.392C157.048 105.77 156.81 106.26 156.81 106.876C156.81 108.122 157.65 108.626 159.092 108.92C160.38 109.2 160.912 109.396 160.912 109.956C160.912 110.67 160.268 111.048 159.414 111.048C158.462 111.048 157.79 110.53 157.468 109.648L156.348 110.068C156.782 111.37 157.958 112.112 159.414 112.112C160.184 112.112 160.828 111.916 161.346 111.51C161.864 111.104 162.13 110.544 162.13 109.844C162.13 109.102 161.696 108.626 161.038 108.346C160.576 108.136 160.198 108.052 159.596 107.926C158.476 107.702 157.958 107.408 157.958 106.834C157.958 106.204 158.504 105.896 159.176 105.896C159.89 105.896 160.464 106.274 160.87 107.016L161.794 106.358C161.234 105.336 160.38 104.832 159.218 104.832Z" fill="#212121"/>
<path d="M166.676 113.498L168.72 110.46H166.998L165.654 113.498H166.676ZM166.942 106.946C167.376 107.38 168.104 107.38 168.538 106.946C168.972 106.512 168.972 105.784 168.538 105.35C168.104 104.916 167.376 104.916 166.942 105.35C166.508 105.784 166.508 106.512 166.942 106.946Z" fill="#212121" fill-opacity="0.5"/>
<path d="M21.096 128.8C22.958 128.8 24.008 127.736 24.008 126C24.008 124.264 22.958 123.2 21.096 123.2H17.386V133H18.618V128.8H21.096ZM18.618 127.624V124.376H21.068C22.174 124.376 22.734 124.922 22.734 126C22.734 127.078 22.174 127.624 21.068 127.624H18.618ZM32.0876 128.128C32.0876 126.602 31.3736 125.832 29.9316 125.832C28.8816 125.832 27.9296 126.42 27.3696 127.246V123.088H26.1936V133H27.3696V130.046C27.3696 129.08 27.5936 128.324 28.0416 127.75C28.4896 127.176 29.0076 126.896 29.6096 126.896C30.4776 126.896 30.9116 127.386 30.9116 128.38V133H32.0876V128.128ZM35.1833 132.048C35.8133 132.762 36.6533 133.112 37.7033 133.112C38.7533 133.112 39.5933 132.762 40.2233 132.048C40.8533 131.334 41.1753 130.48 41.1753 129.472C41.1753 128.464 40.8533 127.61 40.2233 126.896C39.5933 126.182 38.7533 125.832 37.7033 125.832C36.6533 125.832 35.8133 126.182 35.1833 126.896C34.5533 127.61 34.2313 128.464 34.2313 129.472C34.2313 130.48 34.5533 131.334 35.1833 132.048ZM36.0513 127.652C36.4573 127.148 37.0173 126.896 37.7033 126.896C38.3893 126.896 38.9493 127.148 39.3553 127.652C39.7613 128.156 39.9713 128.758 39.9713 129.472C39.9713 130.186 39.7613 130.788 39.3553 131.292C38.9493 131.796 38.3893 132.048 37.7033 132.048C37.0173 132.048 36.4573 131.796 36.0513 131.292C35.6453 130.788 35.4353 130.186 35.4353 129.472C35.4353 128.758 35.6453 128.156 36.0513 127.652ZM44.8449 127.008V130.662C44.8449 132.286 45.6849 133.112 47.2389 133.112C48.0789 133.112 48.8069 132.804 49.4089 132.202L48.9749 131.208C48.4429 131.768 47.8689 132.048 47.2389 132.048C46.4269 132.048 46.0209 131.572 46.0209 130.62V127.008H49.4649V125.944H46.0209V123.088L44.8449 123.83V125.944H42.9689V127.008H44.8449ZM52.5466 132.048C53.1766 132.762 54.0166 133.112 55.0666 133.112C56.1166 133.112 56.9566 132.762 57.5866 132.048C58.2166 131.334 58.5386 130.48 58.5386 129.472C58.5386 128.464 58.2166 127.61 57.5866 126.896C56.9566 126.182 56.1166 125.832 55.0666 125.832C54.0166 125.832 53.1766 126.182 52.5466 126.896C51.9166 127.61 51.5946 128.464 51.5946 129.472C51.5946 130.48 51.9166 131.334 52.5466 132.048ZM53.4146 127.652C53.8206 127.148 54.3806 126.896 55.0666 126.896C55.7526 126.896 56.3126 127.148 56.7186 127.652C57.1246 128.156 57.3346 128.758 57.3346 129.472C57.3346 130.186 57.1246 130.788 56.7186 131.292C56.3126 131.796 55.7526 132.048 55.0666 132.048C54.3806 132.048 53.8206 131.796 53.4146 131.292C53.0086 130.788 52.7986 130.186 52.7986 129.472C52.7986 128.758 53.0086 128.156 53.4146 127.652ZM63.7202 125.832C63.0482 125.832 62.4742 126.014 62.0122 126.392C61.5502 126.77 61.3122 127.26 61.3122 127.876C61.3122 129.122 62.1522 129.626 63.5942 129.92C64.8822 130.2 65.4142 130.396 65.4142 130.956C65.4142 131.67 64.7702 132.048 63.9162 132.048C62.9642 132.048 62.2922 131.53 61.9702 130.648L60.8502 131.068C61.2842 132.37 62.4602 133.112 63.9162 133.112C64.6862 133.112 65.3302 132.916 65.8482 132.51C66.3662 132.104 66.6322 131.544 66.6322 130.844C66.6322 130.102 66.1982 129.626 65.5402 129.346C65.0782 129.136 64.7002 129.052 64.0982 128.926C62.9782 128.702 62.4602 128.408 62.4602 127.834C62.4602 127.204 63.0062 126.896 63.6782 126.896C64.3922 126.896 64.9662 127.274 65.3722 128.016L66.2962 127.358C65.7362 126.336 64.8822 125.832 63.7202 125.832ZM75.4958 128.128C75.4958 126.602 74.7818 125.832 73.3398 125.832C72.2898 125.832 71.3378 126.42 70.7778 127.246V123.088H69.6018V133H70.7778V130.046C70.7778 129.08 71.0018 128.324 71.4498 127.75C71.8978 127.176 72.4158 126.896 73.0178 126.896C73.8858 126.896 74.3198 127.386 74.3198 128.38V133H75.4958V128.128ZM78.5915 132.048C79.2215 132.762 80.0615 133.112 81.1115 133.112C82.1615 133.112 83.0015 132.762 83.6315 132.048C84.2615 131.334 84.5835 130.48 84.5835 129.472C84.5835 128.464 84.2615 127.61 83.6315 126.896C83.0015 126.182 82.1615 125.832 81.1115 125.832C80.0615 125.832 79.2215 126.182 78.5915 126.896C77.9615 127.61 77.6395 128.464 77.6395 129.472C77.6395 130.48 77.9615 131.334 78.5915 132.048ZM79.4595 127.652C79.8655 127.148 80.4255 126.896 81.1115 126.896C81.7975 126.896 82.3575 127.148 82.7635 127.652C83.1695 128.156 83.3795 128.758 83.3795 129.472C83.3795 130.186 83.1695 130.788 82.7635 131.292C82.3575 131.796 81.7975 132.048 81.1115 132.048C80.4255 132.048 79.8655 131.796 79.4595 131.292C79.0535 130.788 78.8435 130.186 78.8435 129.472C78.8435 128.758 79.0535 128.156 79.4595 127.652ZM90.2411 133.112C92.2711 133.112 93.4751 131.67 93.4751 129.472C93.4751 127.274 92.2711 125.832 90.2411 125.832C89.3311 125.832 88.5191 126.28 88.0851 126.882V125.944H86.9091V135.856H88.0851V132.104C88.5191 132.678 89.3031 133.112 90.2411 133.112ZM91.6971 131.334C91.3191 131.81 90.7871 132.048 90.1291 132.048C89.4711 132.048 88.9391 131.81 88.5611 131.334C88.1831 130.858 87.9871 130.242 87.9871 129.472C87.9871 128.702 88.1831 128.086 88.5611 127.61C88.9391 127.134 89.4711 126.896 90.1291 126.896C90.7871 126.896 91.3191 127.134 91.6971 127.61C92.0751 128.086 92.2711 128.702 92.2711 129.472C92.2711 130.242 92.0751 130.858 91.6971 131.334Z" fill="#212121"/>
<path d="M97.6759 134.498L99.7199 131.46H97.9979L96.6539 134.498H97.6759ZM97.9419 127.946C98.3759 128.38 99.1039 128.38 99.5379 127.946C99.9719 127.512 99.9719 126.784 99.5379 126.35C99.1039 125.916 98.3759 125.916 97.9419 126.35C97.5079 126.784 97.5079 127.512 97.9419 127.946Z" fill="#212121" fill-opacity="0.5"/>
<path d="M107.274 133H108.506V128.478H112.706V127.302H108.506V124.376H113.392V123.2H107.274V133ZM118.644 126.98V131.964H116.208V133H122.424V131.964H119.82V125.944H116.488V126.98H118.644ZM118.182 124.068C118.182 124.586 118.602 125.02 119.148 125.02C119.694 125.02 120.114 124.614 120.114 124.068C120.114 123.522 119.694 123.088 119.148 123.088C118.602 123.088 118.182 123.522 118.182 124.068ZM125.351 128.198C125.351 128.772 125.491 129.248 125.785 129.64C125.127 129.878 124.749 130.424 124.749 131.054C124.749 131.516 124.917 131.866 125.253 132.132C124.763 132.51 124.525 133.014 124.525 133.644C124.525 135.156 125.729 135.968 127.787 135.968C128.697 135.968 129.481 135.772 130.125 135.366C130.769 134.96 131.091 134.358 131.091 133.532C131.091 132.258 130.237 131.586 128.725 131.586H126.891C126.233 131.586 125.897 131.39 125.897 130.998C125.897 130.676 126.107 130.438 126.541 130.27C126.919 130.466 127.353 130.564 127.843 130.564C128.571 130.564 129.173 130.354 129.635 129.92C130.097 129.486 130.335 128.912 130.335 128.198C130.335 127.75 130.237 127.358 130.041 127.022L131.231 126.406L130.699 125.44L129.229 126.196C128.809 125.958 128.347 125.832 127.843 125.832C127.129 125.832 126.527 126.042 126.051 126.476C125.589 126.91 125.351 127.484 125.351 128.198ZM128.697 132.594C129.495 132.594 129.887 132.944 129.887 133.644C129.887 134.442 129.117 134.932 127.787 134.932C126.513 134.932 125.701 134.428 125.701 133.602C125.701 133.098 125.897 132.748 126.303 132.538C126.499 132.58 126.737 132.594 127.031 132.594H128.697ZM126.877 127.204C127.143 126.966 127.465 126.84 127.843 126.84C128.221 126.84 128.543 126.966 128.795 127.204C129.061 127.442 129.187 127.764 129.187 128.198C129.187 128.632 129.061 128.968 128.795 129.206C128.543 129.444 128.221 129.556 127.843 129.556C127.465 129.556 127.143 129.43 126.877 129.192C126.625 128.954 126.499 128.618 126.499 128.198C126.499 127.778 126.625 127.442 126.877 127.204ZM140.277 127.736C140.277 126.448 139.675 125.832 138.737 125.832C138.009 125.832 137.379 126.294 137.001 126.98C136.791 126.21 136.301 125.832 135.545 125.832C134.859 125.832 134.313 126.168 133.893 126.84V125.944H132.717V133H133.893V129.682C133.893 127.82 134.411 126.91 135.139 126.91C135.685 126.91 135.909 127.218 135.909 127.988V133H137.085V129.682C137.085 127.82 137.603 126.91 138.331 126.91C138.877 126.91 139.101 127.218 139.101 127.988V133H140.277V127.736ZM143.485 130.97C143.485 130.172 144.171 129.668 145.361 129.668H146.901V129.892C146.901 130.606 146.663 131.152 146.187 131.516C145.725 131.866 145.207 132.048 144.647 132.048C143.933 132.048 143.485 131.642 143.485 130.97ZM148.077 128.548C148.077 126.686 147.013 125.832 145.277 125.832C143.975 125.832 142.897 126.602 142.575 127.82L143.611 128.1C143.835 127.386 144.479 126.896 145.277 126.896C146.229 126.896 146.901 127.33 146.901 128.352V128.66H145.473C143.471 128.66 142.281 129.444 142.281 130.97C142.281 132.356 143.219 133.112 144.465 133.112C145.515 133.112 146.509 132.664 146.957 132.006L147.125 133H148.077V128.548Z" fill="#212121"/>
<path d="M152.676 134.498L154.72 131.46H152.998L151.654 134.498H152.676ZM152.942 127.946C153.376 128.38 154.104 128.38 154.538 127.946C154.972 127.512 154.972 126.784 154.538 126.35C154.104 125.916 153.376 125.916 152.942 126.35C152.508 126.784 152.508 127.512 152.942 127.946Z" fill="#212121" fill-opacity="0.5"/>
<path d="M48.724 40.376V49H49.956V40.376H53.008V39.2H45.672V40.376H48.724ZM61.1856 41.188C60.7376 39.998 59.7016 39.088 58.1196 39.088C57.1816 39.088 56.4536 39.34 55.9216 39.858C55.3896 40.362 55.1236 41.02 55.1236 41.818C55.1796 42.994 55.5856 43.61 56.3696 44.016C56.9296 44.296 57.2656 44.394 57.9516 44.562C58.6656 44.73 58.9176 44.814 59.3516 44.996C59.5756 45.08 59.7296 45.164 59.8276 45.262C60.0096 45.444 60.1776 45.752 60.1776 46.158C60.1776 47.32 59.3936 47.936 58.1616 47.936C56.8736 47.936 56.0336 47.208 55.6556 45.752L54.5076 46.2C54.8856 48.09 56.2716 49.112 58.1616 49.112C60.1356 49.112 61.4096 48.062 61.4096 45.99C61.3676 44.968 61.0036 44.408 60.2336 44.016C59.7156 43.736 59.3376 43.624 58.6236 43.442C57.8256 43.232 57.2516 43.022 56.8876 42.812C56.5376 42.602 56.3556 42.252 56.3556 41.776C56.3556 40.824 57.0416 40.264 58.1196 40.264C59.0156 40.264 59.6736 40.754 60.1076 41.734L61.1856 41.188Z" fill="#212121"/>
<path d="M65.6759 50.498L67.7199 47.46H65.9979L64.6539 50.498H65.6759ZM65.9419 43.946C66.3759 44.38 67.1039 44.38 67.5379 43.946C67.9719 43.512 67.9719 42.784 67.5379 42.35C67.1039 41.916 66.3759 41.916 65.9419 42.35C65.5079 42.784 65.5079 43.512 65.9419 43.946Z" fill="#212121" fill-opacity="0.5"/>
</svg>
